<svg width="57" height="63" viewBox="0 0 57 63" fill="none" xmlns="http://www.w3.org/2000/svg">
<g filter="url(#filter0_d_2772_2384)">
<path d="M25.0784 31.3169C25.0766 30.5284 25.3493 29.7639 25.8496 29.1545C26.35 28.5452 27.0468 28.1289 27.8206 27.9773V27.2574C27.8206 27.0114 27.9183 26.7754 28.0923 26.6014C28.2663 26.4275 28.5022 26.3297 28.7483 26.3297C28.9943 26.3297 29.2303 26.4275 29.4042 26.6014C29.5782 26.7754 29.6759 27.0114 29.6759 27.2574V27.9995C30.2223 28.1401 30.7287 28.4051 31.1555 28.774C31.5823 29.1429 31.9179 29.6055 32.1361 30.1258C32.2224 30.3509 32.2177 30.6009 32.1229 30.8226C32.0281 31.0443 31.8506 31.2204 31.6282 31.3136C31.4057 31.4067 31.1557 31.4096 30.9312 31.3215C30.7067 31.2335 30.5253 31.0614 30.4255 30.8419C30.2877 30.5118 30.0552 30.2299 29.7574 30.0318C29.4595 29.8337 29.1097 29.7282 28.752 29.7287C27.8763 29.7287 26.9375 30.2259 26.9375 31.3169C26.9375 31.6026 26.9375 32.4635 28.9598 32.9273H28.9895C31.958 33.6212 32.4218 35.3615 32.4218 36.3374C32.4236 37.1259 32.1509 37.8904 31.6506 38.4998C31.1502 39.1091 30.4534 39.5254 29.6796 39.677V40.4192C29.6796 40.6652 29.5819 40.9011 29.4079 41.0751C29.234 41.2491 28.998 41.3468 28.752 41.3468C28.5059 41.3468 28.27 41.2491 28.096 41.0751C27.922 40.9011 27.8243 40.6652 27.8243 40.4192V39.677C27.278 39.5365 26.7716 39.2714 26.3448 38.9026C25.9179 38.5337 25.5823 38.071 25.3641 37.5508C25.3127 37.4378 25.2845 37.3155 25.2812 37.1914C25.2779 37.0672 25.2996 36.9437 25.3449 36.8281C25.3903 36.7125 25.4584 36.6071 25.5452 36.5183C25.632 36.4295 25.7358 36.359 25.8503 36.3111C25.9649 36.2631 26.0879 36.2386 26.2121 36.2391C26.3363 36.2396 26.4591 36.265 26.5733 36.3138C26.6875 36.3626 26.7907 36.4339 26.8769 36.5234C26.963 36.6128 27.0303 36.7187 27.0748 36.8346C27.2132 37.165 27.4464 37.4471 27.7448 37.6452C28.0433 37.8433 28.3937 37.9486 28.752 37.9478C29.6277 37.9478 30.5665 37.4506 30.5665 36.3597C30.5665 36.074 30.5665 35.2131 28.5442 34.7492H28.5145C25.5237 34.0368 25.0784 32.2965 25.0784 31.3169ZM31.7576 18.5856C31.959 18.7224 32.2061 18.7745 32.4456 18.7308C32.6851 18.6871 32.8978 18.551 33.0378 18.3518L36.2327 13.8025C36.3664 13.6107 36.4231 13.3756 36.3914 13.1439C36.3598 12.9123 36.2422 12.701 36.062 12.552C31.958 9.14562 25.5311 9.14933 21.4308 12.5631C21.2514 12.712 21.1347 12.9229 21.1037 13.1539C21.0728 13.3849 21.13 13.6191 21.2638 13.8099L24.4587 18.3518C24.6039 18.543 24.8174 18.6705 25.0546 18.7075C25.2917 18.7445 25.534 18.6881 25.7305 18.5503C25.927 18.4124 26.0623 18.2037 26.1082 17.9681C26.1541 17.7325 26.1068 17.4883 25.9764 17.2868L23.2973 13.476C24.9154 12.4099 26.8105 11.8416 28.7483 11.8416C30.686 11.8416 32.5812 12.4099 34.1992 13.476L31.5201 17.2943C31.3791 17.4956 31.3237 17.7446 31.3661 17.9867C31.4086 18.2289 31.5454 18.4442 31.7465 18.5856H31.7576ZM16.2544 36.6528C16.2621 33.5896 16.937 30.5648 18.2321 27.7888C19.5272 25.0128 21.4114 22.5523 23.7537 20.5782C23.9208 20.4371 24.1324 20.3595 24.3511 20.3593H33.1417C33.3604 20.3595 33.572 20.4371 33.7391 20.5782C36.0821 22.5519 37.967 25.0123 39.2628 27.7883C40.5585 30.5644 41.2339 33.5893 41.2421 36.6528V39.2911L41.5278 39.4284C42.2343 39.7661 42.8052 40.3337 43.1468 41.0383C43.4884 41.7429 43.5804 42.5427 43.4079 43.3065C43.2354 44.0703 42.8085 44.7528 42.1973 45.2422C41.586 45.7316 40.8266 45.9988 40.0435 46H17.4493C16.6662 45.9988 15.9068 45.7316 15.2956 45.2422C14.6843 44.7528 14.2574 44.0703 14.0849 43.3065C13.9124 42.5427 14.0045 41.7429 14.3461 41.0383C14.6877 40.3337 15.2585 39.7661 15.965 39.4284L16.2507 39.2911L16.2544 36.6528ZM15.8834 42.8979C15.9614 43.2526 16.1587 43.5698 16.4423 43.7967C16.7259 44.0235 17.0787 44.1464 17.4419 44.1447H40.0398C40.4014 44.1433 40.7518 44.0194 41.0339 43.7933C41.316 43.5672 41.5132 43.2521 41.5933 42.8996C41.6733 42.547 41.6316 42.1777 41.4748 41.8519C41.318 41.5261 41.0555 41.263 40.73 41.1056L39.9174 40.7346C39.7565 40.6567 39.6216 40.534 39.5287 40.3813C39.4359 40.2286 39.3892 40.0523 39.3942 39.8737V36.6528C39.3854 33.9157 38.7926 31.2119 37.6555 28.722C36.5185 26.2322 34.8632 24.0137 32.8003 22.2146H24.6962C22.634 24.0146 20.9798 26.234 19.8439 28.7245C18.7081 31.215 18.1169 33.9193 18.1098 36.6565V39.8774C18.1094 40.052 18.0598 40.2231 17.9666 40.3708C17.8734 40.5185 17.7404 40.6368 17.5829 40.7123L16.7702 41.0834C16.4367 41.2378 16.1669 41.5029 16.0066 41.8336C15.8463 42.1644 15.8054 42.5404 15.8908 42.8979H15.8834Z" fill="black"/>
</g>
<defs>
<filter id="filter0_d_2772_2384" x="-8.33333" y="-5.77778" width="74.6667" height="74.6667" filterUnits="userSpaceOnUse" color-interpolation-filters="sRGB">
<feFlood flood-opacity="0" result="BackgroundImageFix"/>
<feColorMatrix in="SourceAlpha" type="matrix" values="0 0 0 0 0 0 0 0 0 0 0 0 0 0 0 0 0 0 127 0" result="hardAlpha"/>
<feOffset dy="3.55556"/>
<feGaussianBlur stdDeviation="6.66667"/>
<feComposite in2="hardAlpha" operator="out"/>
<feColorMatrix type="matrix" values="0 0 0 0 0.0533385 0 0 0 0 0.0441146 0 0 0 0 0.320833 0 0 0 0.05 0"/>
<feBlend mode="normal" in2="BackgroundImageFix" result="effect1_dropShadow_2772_2384"/>
<feBlend mode="normal" in="SourceGraphic" in2="effect1_dropShadow_2772_2384" result="shape"/>
</filter>
</defs>
</svg>
