<svg width="61" height="63" viewBox="0 0 61 63" fill="none" xmlns="http://www.w3.org/2000/svg">
<g filter="url(#filter0_d_2772_2386)">
<path d="M39.2001 17.1995H21.9202C20.7268 17.1995 19.7602 18.1662 19.7602 19.3595V27.9995C19.7602 29.1928 20.7268 30.1595 21.9202 30.1595H39.2001C40.3934 30.1595 41.3601 29.1928 41.3601 27.9995V19.3595C41.3601 18.1662 40.3934 17.1995 39.2001 17.1995ZM39.9201 27.9997C39.9201 28.1905 39.8445 28.3741 39.7095 28.5091C39.5745 28.6441 39.3909 28.7197 39.2001 28.7197H21.9202C21.5224 28.7197 21.2002 28.3975 21.2002 27.9997V19.3598C21.2002 18.962 21.5224 18.6398 21.9202 18.6398H39.2001C39.3909 18.6398 39.5745 18.7154 39.7095 18.8504C39.8445 18.9854 39.9201 19.169 39.9201 19.3598V27.9997ZM22.6402 33.0399C21.4756 33.0399 20.4244 33.7419 19.9798 34.8183C19.5334 35.8947 19.78 37.1331 20.6044 37.9557C21.427 38.7801 22.6654 39.0267 23.7418 38.5803C24.8182 38.1357 25.5202 37.0845 25.5202 35.9199C25.5202 35.1568 25.216 34.4241 24.676 33.8841C24.136 33.3441 23.4034 33.0399 22.6402 33.0399ZM22.6402 37.3599C22.057 37.3599 21.5332 37.0089 21.31 36.4707C21.0868 35.9325 21.211 35.3133 21.6214 34.9011C22.0336 34.4907 22.6528 34.3665 23.191 34.5897C23.7292 34.8129 24.0802 35.3367 24.0802 35.9199C24.0802 36.3015 23.929 36.6687 23.659 36.9387C23.389 37.2087 23.0218 37.3599 22.6402 37.3599ZM38.4801 33.0399C37.3155 33.0399 36.2643 33.7419 35.8197 34.8183C35.3733 35.8947 35.6199 37.1331 36.4443 37.9557C37.2669 38.7801 38.5053 39.0267 39.5817 38.5803C40.6581 38.1357 41.3601 37.0845 41.3601 35.9199C41.3601 35.1568 41.0559 34.4241 40.5159 33.8841C39.9759 33.3441 39.2433 33.0399 38.4801 33.0399ZM38.4801 37.3599C37.8969 37.3599 37.3731 37.0089 37.1499 36.4707C36.9267 35.9325 37.0509 35.3133 37.4613 34.9011C37.8735 34.4907 38.4927 34.3665 39.0309 34.5897C39.5691 34.8129 39.9201 35.3367 39.9201 35.9199C39.9201 36.3015 39.7689 36.6687 39.4989 36.9387C39.2289 37.2087 38.8617 37.3599 38.4801 37.3599ZM32.7201 37.3599C32.7201 37.5507 32.6445 37.7343 32.5095 37.8693C32.3745 38.0043 32.1909 38.0799 32.0001 38.0799H29.1201C28.7223 38.0799 28.4001 37.7577 28.4001 37.3599C28.4001 36.9621 28.7223 36.6399 29.1201 36.6399H32.0001C32.1909 36.6399 32.3745 36.7155 32.5095 36.8505C32.6445 36.9855 32.7201 37.1691 32.7201 37.3599ZM32.7201 34.4799C32.7201 34.6707 32.6445 34.8543 32.5095 34.9893C32.3745 35.1243 32.1909 35.1999 32.0001 35.1999H29.1201C28.7223 35.1999 28.4001 34.8777 28.4001 34.4799C28.4001 34.0821 28.7223 33.7599 29.1201 33.7599H32.0001C32.1909 33.7599 32.3745 33.8355 32.5095 33.9705C32.6445 34.1055 32.7201 34.2891 32.7201 34.4799ZM44.24 30.9807V27.9999H44.96C46.1534 27.9999 47.12 27.0333 47.12 25.8399V21.5199C47.12 20.3266 46.1534 19.3599 44.96 19.3599H44.24V15.04C44.24 13.7026 43.7091 12.421 42.7641 11.476C41.8191 10.531 40.5375 10 39.2001 10H21.9202C19.1374 10 16.88 12.2572 16.88 15.0402V19.3602H16.16C14.9666 19.3602 14 20.3268 14 21.5202V25.8401C14 27.0335 14.9666 28.0001 16.16 28.0001H16.88V38.08C16.88 39.5111 17.7278 40.8052 19.04 41.3776V43.84C19.04 45.0334 20.0066 46 21.2 46H24.0799C25.2733 46 26.2399 45.0334 26.2399 43.84V41.68H34.8799V43.84C34.8799 45.0334 35.8465 46 37.0399 46H39.9198C41.1132 46 42.0798 45.0334 42.0798 43.84V41.3776C43.1904 40.8898 44.2144 39.9052 44.1822 38.6776C44.15 37.45 44.24 30.9807 44.24 30.9807ZM44.9603 20.8C45.1511 20.8 45.3347 20.8756 45.4697 21.0106C45.6047 21.1456 45.6803 21.3292 45.6803 21.52V25.84C45.6803 26.0308 45.6047 26.2144 45.4697 26.3494C45.3347 26.4844 45.1511 26.56 44.9603 26.56H44.2403V20.8L44.9603 20.8ZM23.3604 11.4403H37.7603V13.6003C37.7603 13.7911 37.6847 13.9747 37.5497 14.1097C37.4147 14.2447 37.2311 14.3203 37.0403 14.3203H24.0804C23.6826 14.3203 23.3604 13.9981 23.3604 13.6003L23.3604 11.4403ZM16.1604 26.5599C15.7627 26.5599 15.4405 26.2377 15.4405 25.8399V21.52C15.4405 21.1222 15.7627 20.8 16.1604 20.8H16.8804V26.5599H16.1604ZM24.8004 43.8398C24.8004 44.0306 24.7248 44.2142 24.5898 44.3492C24.4548 44.4843 24.2712 44.5598 24.0804 44.5598H21.2004C20.8026 44.5598 20.4804 44.2376 20.4804 43.8398V41.6799H24.8004L24.8004 43.8398ZM40.6403 43.8398C40.6403 44.0306 40.5647 44.2142 40.4297 44.3492C40.2947 44.4843 40.1111 44.5598 39.9203 44.5598H37.0403C36.6425 44.5598 36.3203 44.2376 36.3203 43.8398V41.6799H40.6403L40.6403 43.8398ZM42.8003 38.0799C42.8003 39.2732 41.8337 40.2399 40.6403 40.2399H20.4804C19.287 40.2399 18.3204 39.2732 18.3204 38.0799V15.04C18.3204 13.051 19.9314 11.44 21.9204 11.44V13.6C21.9204 14.7934 22.887 15.76 24.0804 15.76H37.0403C38.2337 15.76 39.2003 14.7934 39.2003 13.6V11.44C40.1543 11.44 41.0705 11.8198 41.7455 12.4948C42.4204 13.1698 42.8003 14.086 42.8003 15.04V38.0799Z" fill="black"/>
</g>
<defs>
<filter id="filter0_d_2772_2386" x="-6.33333" y="-5.77778" width="74.6667" height="74.6667" filterUnits="userSpaceOnUse" color-interpolation-filters="sRGB">
<feFlood flood-opacity="0" result="BackgroundImageFix"/>
<feColorMatrix in="SourceAlpha" type="matrix" values="0 0 0 0 0 0 0 0 0 0 0 0 0 0 0 0 0 0 127 0" result="hardAlpha"/>
<feOffset dy="3.55556"/>
<feGaussianBlur stdDeviation="6.66667"/>
<feComposite in2="hardAlpha" operator="out"/>
<feColorMatrix type="matrix" values="0 0 0 0 0.0533385 0 0 0 0 0.0441146 0 0 0 0 0.320833 0 0 0 0.05 0"/>
<feBlend mode="normal" in2="BackgroundImageFix" result="effect1_dropShadow_2772_2386"/>
<feBlend mode="normal" in="SourceGraphic" in2="effect1_dropShadow_2772_2386" result="shape"/>
</filter>
</defs>
</svg>
