<svg width="65" height="64" viewBox="0 0 65 64" fill="none" xmlns="http://www.w3.org/2000/svg">
<rect x="0.399902" width="64" height="64" rx="18.2857" fill="#9895FA"/>
<path d="M41.9996 19.9995H22.7997C21.4737 19.9995 20.3997 21.0735 20.3997 22.3995V31.9994C20.3997 33.3254 21.4737 34.3994 22.7997 34.3994H41.9996C43.3256 34.3994 44.3996 33.3254 44.3996 31.9994V22.3995C44.3996 21.0735 43.3256 19.9995 41.9996 19.9995ZM42.7996 31.9997C42.7996 32.2117 42.7156 32.4157 42.5656 32.5657C42.4156 32.7157 42.2116 32.7997 41.9996 32.7997H22.7997C22.3577 32.7997 21.9997 32.4417 21.9997 31.9997V22.3997C21.9997 21.9577 22.3577 21.5997 22.7997 21.5997H41.9996C42.2116 21.5997 42.4156 21.6837 42.5656 21.8337C42.7156 21.9837 42.7996 22.1877 42.7996 22.3998V31.9997ZM23.5997 37.5999C22.3057 37.5999 21.1377 38.3799 20.6437 39.5759C20.1477 40.7719 20.4217 42.1479 21.3378 43.0619C22.2518 43.9779 23.6278 44.2519 24.8237 43.7559C26.0197 43.2619 26.7997 42.0939 26.7997 40.7999C26.7997 39.9519 26.4617 39.1379 25.8618 38.5379C25.2618 37.9379 24.4477 37.5999 23.5997 37.5999ZM23.5997 42.3999C22.9517 42.3999 22.3697 42.0099 22.1217 41.4119C21.8737 40.8138 22.0117 40.1259 22.4677 39.6679C22.9257 39.2119 23.6137 39.0739 24.2117 39.3219C24.8097 39.5699 25.1997 40.1519 25.1997 40.7999C25.1997 41.2239 25.0317 41.6319 24.7317 41.9318C24.4317 42.2318 24.0237 42.3999 23.5997 42.3999ZM41.1996 37.5999C39.9056 37.5999 38.7376 38.3799 38.2436 39.5759C37.7476 40.7719 38.0216 42.1479 38.9376 43.0619C39.8517 43.9779 41.2276 44.2519 42.4236 43.7559C43.6196 43.2619 44.3996 42.0939 44.3996 40.7999C44.3996 39.9519 44.0616 39.1379 43.4616 38.5379C42.8617 37.9379 42.0476 37.5999 41.1996 37.5999ZM41.1996 42.3999C40.5516 42.3999 39.9696 42.0099 39.7216 41.4119C39.4736 40.8138 39.6116 40.1259 40.0676 39.6679C40.5256 39.2119 41.2136 39.0739 41.8116 39.3219C42.4096 39.5699 42.7996 40.1519 42.7996 40.7999C42.7996 41.2239 42.6316 41.6319 42.3316 41.9318C42.0316 42.2318 41.6236 42.3999 41.1996 42.3999ZM34.7996 42.3999C34.7996 42.6119 34.7156 42.8159 34.5656 42.9659C34.4156 43.1159 34.2116 43.1999 33.9996 43.1999H30.7996C30.3576 43.1999 29.9996 42.8419 29.9996 42.3999C29.9996 41.9579 30.3576 41.5999 30.7996 41.5999H33.9996C34.2116 41.5999 34.4156 41.6839 34.5656 41.8339C34.7156 41.9839 34.7996 42.1878 34.7996 42.3999ZM34.7996 39.1999C34.7996 39.4119 34.7156 39.6159 34.5656 39.7659C34.4156 39.9159 34.2116 39.9999 33.9996 39.9999H30.7996C30.3576 39.9999 29.9996 39.6419 29.9996 39.1999C29.9996 38.7579 30.3576 38.3999 30.7996 38.3999H33.9996C34.2116 38.3999 34.4156 38.4839 34.5656 38.6339C34.7156 38.7839 34.7996 38.9879 34.7996 39.1999ZM47.5996 35.3119V31.9999H48.3995C49.7255 31.9999 50.7995 30.9259 50.7995 29.5999V24.7999C50.7995 23.4739 49.7255 22.3999 48.3995 22.3999H47.5996V17.6C47.5996 16.114 47.0096 14.69 45.9596 13.64C44.9096 12.59 43.4856 12 41.9996 12H22.7997C19.7077 12 17.1995 14.508 17.1995 17.6002V22.4002H16.3995C15.0735 22.4002 13.9995 23.4742 13.9995 24.8002V29.6001C13.9995 30.9261 15.0735 32.0001 16.3995 32.0001H17.1995V43.2001C17.1995 44.7901 18.1415 46.2281 19.5995 46.864V49.6C19.5995 50.926 20.6735 52 21.9995 52H25.1994C26.5254 52 27.5994 50.926 27.5994 49.6V47.2H37.1994V49.6C37.1994 50.926 38.2734 52 39.5993 52H42.7993C44.1253 52 45.1993 50.926 45.1993 49.6V46.864C46.4333 46.322 47.5711 45.228 47.5353 43.864C47.4995 42.5 47.5996 35.3119 47.5996 35.3119ZM48.3998 24C48.6118 24 48.8158 24.084 48.9658 24.234C49.1158 24.384 49.1998 24.588 49.1998 24.8V29.6C49.1998 29.812 49.1158 30.0159 48.9658 30.166C48.8158 30.316 48.6118 30.4 48.3998 30.4H47.5998V24L48.3998 24ZM24.4 13.6003H40.3999V16.0003C40.3999 16.2123 40.3159 16.4163 40.1659 16.5663C40.0159 16.7163 39.8119 16.8003 39.5998 16.8003H25.1999C24.7579 16.8003 24.3999 16.4423 24.3999 16.0003L24.4 13.6003ZM16.4 30.3999C15.958 30.3999 15.6 30.0419 15.6 29.5999V24.8C15.6 24.358 15.958 24 16.4 24H17.2V30.3999H16.4ZM25.9999 49.5998C25.9999 49.8118 25.9159 50.0158 25.7659 50.1658C25.6159 50.3158 25.4119 50.3998 25.1999 50.3998H22C21.558 50.3998 21.2 50.0418 21.2 49.5998V47.1998H25.9999L25.9999 49.5998ZM43.5998 49.5998C43.5998 49.8118 43.5158 50.0158 43.3658 50.1658C43.2158 50.3158 43.0118 50.3998 42.7998 50.3998H39.5998C39.1578 50.3998 38.7998 50.0418 38.7998 49.5998V47.1998H43.5998L43.5998 49.5998ZM45.9998 43.1999C45.9998 44.5258 44.9258 45.5998 43.5998 45.5998H21.2C19.874 45.5998 18.8 44.5258 18.8 43.1999V17.6C18.8 15.39 20.59 13.6 22.8 13.6V16C22.8 17.326 23.874 18.4 25.2 18.4H39.5999C40.9258 18.4 41.9998 17.326 41.9998 16V13.6C43.0598 13.6 44.0778 14.022 44.8278 14.7721C45.5778 15.522 45.9998 16.54 45.9998 17.6V43.1999Z" fill="white"/>
</svg>
