<svg width="64" height="64" viewBox="0 0 64 64" fill="none" xmlns="http://www.w3.org/2000/svg">
<rect width="64" height="64" rx="20" fill="#9895FA"/>
<path d="M48.5556 16.2154H44.2488C44.232 16.1961 44.2175 16.1721 44.1983 16.1528L40.4016 12.3585C40.3438 12.3008 40.2813 12.2502 40.2115 12.2045C40.185 12.1853 40.1537 12.1732 40.1273 12.1588C40.0864 12.1347 40.0455 12.1107 40.0022 12.0914C39.9637 12.0746 39.9228 12.0674 39.8819 12.0553C39.8458 12.0433 39.8097 12.0313 39.7736 12.0241C39.6942 12.0072 39.6148 12 39.533 12H24.2521C24.1727 12 24.0909 12.0096 24.0115 12.0241C23.973 12.0313 23.9393 12.0457 23.9008 12.0553C23.8599 12.0674 23.8214 12.077 23.7805 12.0914C23.7372 12.1107 23.6963 12.1347 23.6554 12.1588C23.6265 12.1756 23.5977 12.1877 23.5712 12.2045C23.5038 12.2502 23.4389 12.3008 23.3811 12.3585L19.5844 16.1528C19.5651 16.1721 19.5507 16.1961 19.5339 16.2154H15.2271C14.5486 16.2154 14 16.764 14 17.4425V50.7729C14 51.4514 14.5486 52 15.2271 52H48.5575C49.2361 52 49.7846 51.4514 49.7846 50.7729L49.7822 17.44C49.7822 16.7615 49.2336 16.2129 48.5551 16.2129L48.5556 16.2154ZM31.8913 19.1291L27.2116 14.4494H36.5708L31.8913 19.1291ZM30.4308 24.059L31.8913 22.5986L33.3518 24.059V41.245L31.8913 43.1675L30.4308 41.245V24.059ZM35.688 22.9258L33.626 20.8638L39.5328 14.9571L41.5948 17.0191L35.688 22.9258ZM24.25 14.9568L30.1567 20.8635L28.0948 22.9255L22.188 17.0188L24.25 14.9568ZM47.3287 49.5431H16.4546V18.6666H20.3692L27.229 25.5263C27.4383 25.7356 27.7054 25.8487 27.9797 25.8752V41.6562C27.9797 41.9233 28.0687 42.1856 28.2299 42.3973L30.9175 45.9342C31.1484 46.2397 31.5117 46.4178 31.8943 46.4178C32.2768 46.4178 32.6401 46.2373 32.8711 45.9342L35.5586 42.3973C35.7198 42.1831 35.8089 41.9233 35.8089 41.6562V25.8752C36.0711 25.8511 36.3238 25.7453 36.5307 25.5528C36.5403 25.5432 36.5523 25.5384 36.562 25.5287L43.4217 18.669H47.3363V49.5455L47.3287 49.5431Z" fill="white"/>
</svg>
