<svg width="21" height="19" viewBox="0 0 21 19" fill="none" xmlns="http://www.w3.org/2000/svg">
<path d="M0.894082 10.4035H18.0849L13.597 16.7657C13.318 17.1611 13.3167 17.8041 13.5933 18.2024C13.7323 18.4027 13.9153 18.5024 14.098 18.5024C14.2793 18.5024 14.4603 18.4037 14.5993 18.2071L20.2921 10.1376C20.571 9.74212 20.5724 9.09911 20.2957 8.70082L14.645 0.571737C14.3684 0.172981 13.9176 0.171566 13.6387 0.56654C13.3597 0.961509 13.3577 1.60499 13.635 2.00329L18.062 8.37148H0.894085C0.500958 8.37148 0.182617 8.82645 0.182617 9.38725C0.182287 9.94758 0.500625 10.4035 0.894082 10.4035Z" fill="white"/>
</svg>
