<svg width="21" height="19" viewBox="0 0 21 19" fill="none" xmlns="http://www.w3.org/2000/svg">
<path d="M20.1059 10.4035H2.91508L7.40301 16.7657C7.68198 17.1611 7.6833 17.8041 7.40665 18.2024C7.26767 18.4027 7.08467 18.5024 6.90201 18.5024C6.72067 18.5024 6.53966 18.4037 6.40066 18.2071L0.70792 10.1376C0.428954 9.74212 0.427633 9.09911 0.70428 8.70082L6.355 0.571737C6.63165 0.172981 7.08236 0.171566 7.36133 0.56654C7.6403 0.961509 7.64228 1.60499 7.36497 2.00329L2.93795 8.37148H20.1059C20.499 8.37148 20.8174 8.82645 20.8174 9.38725C20.8177 9.94758 20.4994 10.4035 20.1059 10.4035Z" fill="white"/>
</svg>
