<svg width="64" height="63" viewBox="0 0 64 63" fill="none" xmlns="http://www.w3.org/2000/svg">
<g filter="url(#filter0_d_2765_1835)">
<path d="M31.9991 26.5288C31.8739 26.5288 31.751 26.4949 31.6436 26.4306C31.5362 26.3662 31.4482 26.274 31.389 26.1637L29.5349 22.7073H24.1747C23.9911 22.7073 23.815 22.6344 23.6852 22.5045C23.5554 22.3747 23.4824 22.1986 23.4824 22.015V10.6923C23.4824 10.5087 23.5554 10.3326 23.6852 10.2028C23.815 10.0729 23.9911 10 24.1747 10H39.8235C40.0071 10 40.1832 10.0729 40.313 10.2028C40.4428 10.3326 40.5158 10.5087 40.5158 10.6923V22.015C40.5158 22.1986 40.4428 22.3747 40.313 22.5045C40.1832 22.6344 40.0071 22.7073 39.8235 22.7073H34.4654L32.6092 26.1637C32.55 26.274 32.4621 26.3662 32.3546 26.4306C32.2472 26.4949 32.1243 26.5288 31.9991 26.5288ZM24.867 21.3227H29.949C30.0742 21.3227 30.1971 21.3567 30.3045 21.421C30.412 21.4853 30.4999 21.5775 30.5591 21.6879L31.9991 24.3706L33.4391 21.6879C33.4983 21.5775 33.5862 21.4853 33.6937 21.421C33.8011 21.3567 33.924 21.3227 34.0492 21.3227H39.1312V11.3846H24.867V21.3227Z" fill="black"/>
<path d="M36.2056 14.2147H27.7958C27.6122 14.2147 27.4361 14.1418 27.3063 14.0119C27.1765 13.8821 27.1035 13.706 27.1035 13.5224C27.1035 13.3388 27.1765 13.1627 27.3063 13.0329C27.4361 12.903 27.6122 12.8301 27.7958 12.8301H36.2056C36.3892 12.8301 36.5653 12.903 36.6952 13.0329C36.825 13.1627 36.8979 13.3388 36.8979 13.5224C36.8979 13.706 36.825 13.8821 36.6952 14.0119C36.5653 14.1418 36.3892 14.2147 36.2056 14.2147Z" fill="black"/>
<path d="M36.2056 17.0467H27.7958C27.6122 17.0467 27.4361 16.9738 27.3063 16.844C27.1765 16.7141 27.1035 16.538 27.1035 16.3544C27.1035 16.1708 27.1765 15.9947 27.3063 15.8649C27.4361 15.735 27.6122 15.6621 27.7958 15.6621H36.2056C36.3892 15.6621 36.5653 15.735 36.6952 15.8649C36.825 15.9947 36.8979 16.1708 36.8979 16.3544C36.8979 16.538 36.825 16.7141 36.6952 16.844C36.5653 16.9738 36.3892 17.0467 36.2056 17.0467Z" fill="black"/>
<path d="M36.2056 19.8768H27.7958C27.6122 19.8768 27.4361 19.8039 27.3063 19.674C27.1765 19.5442 27.1035 19.3681 27.1035 19.1845C27.1035 19.0009 27.1765 18.8248 27.3063 18.695C27.4361 18.5651 27.6122 18.4922 27.7958 18.4922H36.2056C36.3892 18.4922 36.5653 18.5651 36.6952 18.695C36.825 18.8248 36.8979 19.0009 36.8979 19.1845C36.8979 19.3681 36.825 19.5442 36.6952 19.674C36.5653 19.8039 36.3892 19.8768 36.2056 19.8768Z" fill="black"/>
<path d="M41.584 33.359C40.541 33.359 39.5407 32.9452 38.8025 32.2085C38.0643 31.4717 37.6485 30.4722 37.6465 29.4293C37.6465 27.2628 39.4127 25.5 41.584 25.5C43.7552 25.5 45.5215 27.2628 45.5215 29.4293C45.5194 30.4722 45.1037 31.4717 44.3655 32.2085C43.6273 32.9452 42.6269 33.359 41.584 33.359ZM41.584 26.8846C41.0809 26.8862 40.5896 27.0367 40.1721 27.3174C39.7546 27.598 39.4296 27.996 39.2381 28.4612C39.0467 28.9264 38.9974 29.438 39.0966 29.9312C39.1957 30.4243 39.4387 30.8771 39.795 31.2323C40.1513 31.5874 40.6049 31.829 41.0984 31.9265C41.5919 32.024 42.1032 31.9731 42.5678 31.7802C43.0324 31.5873 43.4294 31.261 43.7087 30.8426C43.988 30.4241 44.137 29.9323 44.1369 29.4293C44.1347 28.7536 43.8648 28.1064 43.3862 27.6294C42.9077 27.1524 42.2596 26.8846 41.584 26.8846Z" fill="black"/>
<path d="M49.3074 45.9996H33.8603C33.6767 45.9996 33.5006 45.9267 33.3707 45.7968C33.2409 45.667 33.168 45.4909 33.168 45.3073V39.8636C33.168 36.7422 35.7074 34.2031 38.8284 34.2031H44.3392C47.4602 34.2031 49.9997 36.7422 49.9997 39.8636V45.3073C49.9997 45.4909 49.9268 45.667 49.7969 45.7968C49.6671 45.9267 49.491 45.9996 49.3074 45.9996ZM34.5526 44.615H48.6151V39.8636C48.6138 38.73 48.1629 37.6431 47.3613 36.8415C46.5597 36.0399 45.4729 35.589 44.3392 35.5877H38.8284C37.6948 35.589 36.608 36.0399 35.8063 36.8415C35.0047 37.6431 34.5538 38.73 34.5526 39.8636V44.615Z" fill="black"/>
<path d="M36.7275 45.9998C36.5439 45.9998 36.3678 45.9269 36.2379 45.797C36.1081 45.6672 36.0352 45.4911 36.0352 45.3075V40.0888C36.0352 39.9052 36.1081 39.7291 36.2379 39.5993C36.3678 39.4694 36.5439 39.3965 36.7275 39.3965C36.9111 39.3965 37.0872 39.4694 37.217 39.5993C37.3468 39.7291 37.4198 39.9052 37.4198 40.0888V45.3075C37.4198 45.4911 37.3468 45.6672 37.217 45.797C37.0872 45.9269 36.9111 45.9998 36.7275 45.9998Z" fill="black"/>
<path d="M22.416 33.3652C21.6373 33.3652 20.876 33.1343 20.2285 32.7016C19.5809 32.269 19.0763 31.654 18.7782 30.9346C18.4802 30.2151 18.4022 29.4234 18.5542 28.6596C18.7061 27.8958 19.0811 27.1942 19.6318 26.6435C20.1825 26.0928 20.884 25.7178 21.6478 25.5659C22.4116 25.414 23.2033 25.4919 23.9228 25.79C24.6423 26.088 25.2573 26.5927 25.6899 27.2402C26.1226 27.8877 26.3535 28.649 26.3535 29.4277C26.3524 30.4717 25.9372 31.4725 25.199 32.2107C24.4608 32.9489 23.46 33.3641 22.416 33.3652ZM22.416 26.8749C21.9111 26.8749 21.4175 27.0246 20.9977 27.3051C20.5779 27.5856 20.2507 27.9843 20.0575 28.4508C19.8642 28.9173 19.8137 29.4306 19.9122 29.9258C20.0107 30.421 20.2538 30.8759 20.6109 31.2329C20.9679 31.5899 21.4228 31.8331 21.918 31.9316C22.4132 32.0301 22.9265 31.9795 23.393 31.7863C23.8594 31.5931 24.2581 31.2659 24.5387 30.846C24.8192 30.4262 24.9689 29.9326 24.9689 29.4277C24.9681 28.7509 24.6989 28.102 24.2203 27.6235C23.7417 27.1449 23.0928 26.8757 22.416 26.8749Z" fill="black"/>
<path d="M30.1394 45.9995H14.6923C14.5087 45.9995 14.3326 45.9266 14.2028 45.7968C14.0729 45.6669 14 45.4908 14 45.3072V39.844C14 36.7196 16.5421 34.1758 19.6683 34.1758H25.1635C28.2879 34.1758 30.8317 36.7178 30.8317 39.844V45.3072C30.8317 45.4908 30.7588 45.6669 30.629 45.7968C30.4991 45.9266 30.323 45.9995 30.1394 45.9995ZM15.3846 44.6149H29.4471V39.844C29.4463 38.7082 28.9947 37.6191 28.1916 36.8159C27.3884 36.0128 26.2993 35.5612 25.1635 35.5604H19.6683C18.5324 35.5612 17.4433 36.0128 16.6402 36.8159C15.837 37.6191 15.3854 38.7082 15.3846 39.844V44.6149Z" fill="black"/>
<path d="M17.5575 45.9998C17.3739 45.9998 17.1978 45.9269 17.068 45.797C16.9382 45.6672 16.8652 45.4911 16.8652 45.3075V40.0888C16.8652 39.9052 16.9382 39.7291 17.068 39.5993C17.1978 39.4694 17.3739 39.3965 17.5575 39.3965C17.7412 39.3965 17.9172 39.4694 18.0471 39.5993C18.1769 39.7291 18.2498 39.9052 18.2498 40.0888V45.3075C18.2498 45.4911 18.1769 45.6672 18.0471 45.797C17.9172 45.9269 17.7412 45.9998 17.5575 45.9998Z" fill="black"/>
<path d="M27.2724 45.9998C27.0888 45.9998 26.9127 45.9269 26.7828 45.797C26.653 45.6672 26.5801 45.4911 26.5801 45.3075V40.0888C26.5801 39.9052 26.653 39.7291 26.7828 39.5993C26.9127 39.4694 27.0888 39.3965 27.2724 39.3965C27.456 39.3965 27.6321 39.4694 27.7619 39.5993C27.8918 39.7291 27.9647 39.9052 27.9647 40.0888V45.3075C27.9647 45.4911 27.8918 45.6672 27.7619 45.797C27.6321 45.9269 27.456 45.9998 27.2724 45.9998Z" fill="black"/>
</g>
<defs>
<filter id="filter0_d_2765_1835" x="-5.33333" y="-5.77778" width="74.6667" height="74.6667" filterUnits="userSpaceOnUse" color-interpolation-filters="sRGB">
<feFlood flood-opacity="0" result="BackgroundImageFix"/>
<feColorMatrix in="SourceAlpha" type="matrix" values="0 0 0 0 0 0 0 0 0 0 0 0 0 0 0 0 0 0 127 0" result="hardAlpha"/>
<feOffset dy="3.55556"/>
<feGaussianBlur stdDeviation="6.66667"/>
<feComposite in2="hardAlpha" operator="out"/>
<feColorMatrix type="matrix" values="0 0 0 0 0.0533385 0 0 0 0 0.0441146 0 0 0 0 0.320833 0 0 0 0.05 0"/>
<feBlend mode="normal" in2="BackgroundImageFix" result="effect1_dropShadow_2765_1835"/>
<feBlend mode="normal" in="SourceGraphic" in2="effect1_dropShadow_2765_1835" result="shape"/>
</filter>
</defs>
</svg>
