<svg width="64" height="63" viewBox="0 0 64 63" fill="none" xmlns="http://www.w3.org/2000/svg">
<g filter="url(#filter0_d_2772_2189)">
<path d="M32 10C28.4399 10 24.9598 11.0557 21.9997 13.0335C19.0397 15.0114 16.7326 17.8226 15.3702 21.1117C14.0078 24.4008 13.6513 28.02 14.3459 31.5116C15.0404 35.0033 16.7547 38.2106 19.2721 40.7279C21.7894 43.2453 24.9967 44.9596 28.4884 45.6541C31.98 46.3487 35.5992 45.9922 38.8883 44.6298C42.1774 43.2674 44.9886 40.9603 46.9665 38.0003C48.9443 35.0402 50 31.5601 50 28C49.9946 23.2278 48.0964 18.6525 44.722 15.278C41.3475 11.9036 36.7722 10.0054 32 10ZM32 44.8C28.6773 44.8 25.4292 43.8147 22.6664 41.9687C19.9037 40.1227 17.7504 37.4989 16.4788 34.4291C15.2073 31.3593 14.8746 27.9814 15.5228 24.7225C16.171 21.4636 17.7711 18.4701 20.1206 16.1206C22.4701 13.7711 25.4636 12.171 28.7225 11.5228C31.9814 10.8746 35.3593 11.2073 38.4291 12.4788C41.4989 13.7504 44.1227 15.9037 45.9687 18.6664C47.8147 21.4292 48.8 24.6773 48.8 28C48.7949 32.4541 47.0233 36.7243 43.8738 39.8738C40.7243 43.0233 36.4541 44.7949 32 44.8Z" fill="black"/>
<path d="M42.5176 18.3261L22.327 38.5167C22.206 38.6376 22.1121 38.7828 22.0513 38.9427C21.9906 39.1026 21.9646 39.2736 21.9748 39.4443C21.9847 39.6116 22.03 39.7749 22.1078 39.9234C22.1856 40.0718 22.2941 40.202 22.426 40.3053C25.1647 42.4442 28.5409 43.6041 32.0158 43.5999C32.443 43.5999 32.8726 43.5825 33.3022 43.5477C36.1029 43.3152 38.7887 42.3299 41.0753 40.696C43.3619 39.0622 45.1643 36.8406 46.2918 34.2664C47.4193 31.6922 47.83 28.861 47.4804 26.0725C47.1307 23.284 46.0338 20.6419 44.3056 18.4257C44.2023 18.2937 44.0721 18.1853 43.9237 18.1075C43.7752 18.0297 43.6119 17.9844 43.4446 17.9745C43.2741 17.9651 43.1035 17.9915 42.9439 18.0521C42.7842 18.1126 42.639 18.206 42.5176 18.3261ZM30.9202 38.0859C30.1374 37.9265 29.4001 37.5945 28.7617 37.1141C28.1234 36.6338 27.6002 36.0172 27.2302 35.3091L28.1302 34.4091C28.3948 35.0464 28.8123 35.6086 29.346 36.0459C29.8796 36.4833 30.5129 36.7823 31.1897 36.9165C31.8665 37.0508 32.5659 37.016 33.2261 36.8154C33.8862 36.6148 34.4867 36.2545 34.9744 35.7665C35.4621 35.2784 35.822 34.6776 36.0221 34.0173C36.2222 33.357 36.2563 32.6575 36.1216 31.9808C35.9869 31.3041 35.6873 30.6711 35.2496 30.1378C34.8118 29.6045 34.2493 29.1874 33.6118 28.9233L34.5034 28.0305C35.4913 28.5458 36.2952 29.3546 36.8045 30.3455C37.3138 31.3365 37.5035 32.461 37.3475 33.5642C37.1914 34.6674 36.6973 35.6951 35.9331 36.5059C35.169 37.3168 34.1723 37.8708 33.0802 38.0919C32.9447 38.1196 32.8229 38.1932 32.7354 38.3004C32.648 38.4075 32.6002 38.5416 32.6002 38.6799V39.3999C32.6004 39.48 32.5841 39.5593 32.5525 39.6329C32.5208 39.7065 32.4743 39.7728 32.416 39.8277C32.3619 39.8829 32.2971 39.9266 32.2257 39.9562C32.1542 39.9857 32.0776 40.0006 32.0002 39.9999C31.8411 39.9999 31.6885 39.9367 31.576 39.8242C31.4635 39.7117 31.4002 39.5591 31.4002 39.3999V38.6739C31.4003 38.5356 31.3525 38.4015 31.265 38.2944C31.1776 38.1872 31.0558 38.1136 30.9202 38.0859ZM29.0674 33.4701L32.6506 29.8839C33.1702 30.0003 33.6492 30.2532 34.0385 30.6164C34.4278 30.9796 34.7131 31.4401 34.8652 31.9503C35.0173 32.4605 35.0306 33.0021 34.9036 33.5191C34.7767 34.0362 34.5143 34.51 34.1433 34.8919C33.7722 35.2737 33.3061 35.5497 32.7929 35.6914C32.2797 35.8332 31.738 35.8355 31.2236 35.6981C30.7093 35.5608 30.2408 35.2888 29.8665 34.9101C29.4923 34.5315 29.2258 34.0599 29.0944 33.5439C29.0854 33.5199 29.074 33.4965 29.0656 33.4701H29.0674ZM46.3528 29.2053C46.052 32.5906 44.5703 35.7622 42.167 38.1653C39.7638 40.5684 36.5921 42.05 33.2068 42.3507C29.6068 42.6551 26.0245 41.589 23.1766 39.3657L26.3464 36.1935C27.2075 37.6332 28.5861 38.6894 30.2002 39.1461V39.3999C30.2002 39.8773 30.3899 40.3351 30.7274 40.6727C31.065 41.0103 31.5229 41.1999 32.0002 41.1999C32.4769 41.1976 32.9334 41.0072 33.2704 40.6701C33.6075 40.333 33.7979 39.8766 33.8002 39.3999V39.1509C35.0393 38.7992 36.1483 38.0927 36.9907 37.1185C37.8331 36.1442 38.372 34.9447 38.5411 33.6679C38.7101 32.391 38.5018 31.0927 37.942 29.9328C37.3821 28.7728 36.4951 27.8021 35.3902 27.1401L43.36 19.1637C45.5846 22.0155 46.6526 25.6011 46.351 29.2053H46.3528Z" fill="black"/>
<path d="M42.025 16.5552C42.0152 16.3879 41.9699 16.2246 41.8921 16.0762C41.8143 15.9277 41.7058 15.7975 41.5738 15.6942C38.5748 13.3557 34.8244 12.194 31.0287 12.428C27.2329 12.6619 23.6535 14.2753 20.9644 16.9644C18.2753 19.6535 16.6619 23.2329 16.428 27.0287C16.194 30.8244 17.3557 34.5748 19.6942 37.5738C19.7975 37.7058 19.9277 37.8143 20.0762 37.8921C20.2246 37.9699 20.3879 38.0152 20.5552 38.025C20.5798 38.025 20.6044 38.025 20.6284 38.025C20.9487 38.0249 21.2558 37.8975 21.4822 37.671L41.6728 17.4828C41.7938 17.3619 41.8878 17.2167 41.9485 17.0568C42.0092 16.8969 42.0353 16.7259 42.025 16.5552ZM33.0796 17.9136C33.8624 18.0731 34.5998 18.405 35.2381 18.8854C35.8764 19.3657 36.3996 19.9824 36.7696 20.6904L35.8696 21.5904C35.6051 20.9532 35.1875 20.391 34.6539 19.9536C34.1202 19.5162 33.487 19.2172 32.8102 19.083C32.1334 18.9488 31.434 18.9835 30.7738 19.1841C30.1136 19.3847 29.5131 19.745 29.0254 20.2331C28.5377 20.7211 28.1779 21.3219 27.9778 21.9822C27.7777 22.6426 27.7435 23.342 27.8782 24.0187C28.013 24.6954 28.3125 25.3284 28.7503 25.8617C29.188 26.395 29.7506 26.8122 30.388 27.0762L29.4988 27.9696C28.5107 27.4546 27.7065 26.646 27.1969 25.6551C26.6873 24.6643 26.4973 23.5398 26.6531 22.4365C26.8089 21.3332 27.3028 20.3053 28.0669 19.4942C28.8309 18.6832 29.8275 18.1289 30.9196 17.9076C31.0551 17.8799 31.1769 17.8063 31.2644 17.6992C31.3519 17.592 31.3996 17.4579 31.3996 17.3196V16.5996C31.3996 16.4405 31.4628 16.2879 31.5753 16.1753C31.6879 16.0628 31.8405 15.9996 31.9996 15.9996C32.0797 15.9995 32.159 16.0157 32.2326 16.0474C32.3062 16.0791 32.3725 16.1255 32.4274 16.1838C32.4826 16.238 32.5263 16.3027 32.5558 16.3742C32.5854 16.4456 32.6003 16.5223 32.5996 16.5996V17.3256C32.5996 17.4639 32.6473 17.598 32.7348 17.7052C32.8223 17.8123 32.9441 17.8859 33.0796 17.9136ZM34.9324 22.5294L31.351 26.1156C30.8315 25.9992 30.3524 25.7463 29.9631 25.3831C29.5739 25.0199 29.2885 24.5595 29.1364 24.0492C28.9844 23.539 28.9711 22.9975 29.098 22.4804C29.2249 21.9634 29.4874 21.4895 29.8584 21.1077C30.2294 20.7258 30.6955 20.4498 31.2087 20.3081C31.7219 20.1664 32.2636 20.1641 32.778 20.3014C33.2924 20.4387 33.7609 20.7107 34.1351 21.0894C34.5094 21.468 34.7759 21.9397 34.9072 22.4556C34.9144 22.4796 34.9258 22.503 34.9342 22.5294H34.9324ZM40.8238 16.6332L37.654 19.8054C36.7927 18.3659 35.4139 17.3099 33.7996 16.8534V16.5996C33.7972 16.1229 33.6068 15.6665 33.2698 15.3294C32.9327 14.9924 32.4763 14.802 31.9996 14.7996C31.5222 14.7996 31.0644 14.9893 30.7268 15.3268C30.3893 15.6644 30.1996 16.1222 30.1996 16.5996V16.8486C28.9606 17.2003 27.8515 17.9068 27.0091 18.8811C26.1667 19.8554 25.6278 21.0548 25.4588 22.3317C25.2898 23.6085 25.498 24.9069 26.0579 26.0668C26.6178 27.2267 27.5048 28.1975 28.6096 28.8594L20.6398 36.8358C19.0453 34.7903 18.0332 32.3519 17.7107 29.7784C17.3882 27.205 17.7671 24.5922 18.8076 22.2164C19.848 19.8407 21.5112 17.7903 23.6212 16.2821C25.7312 14.774 28.2096 13.8641 30.7942 13.6488C31.1914 13.616 31.5878 13.5996 31.9834 13.5996C35.1864 13.5953 38.299 14.6609 40.8274 16.6272L40.8238 16.6332Z" fill="black"/>
</g>
<defs>
<filter id="filter0_d_2772_2189" x="-5.33333" y="-5.77778" width="74.6667" height="74.6667" filterUnits="userSpaceOnUse" color-interpolation-filters="sRGB">
<feFlood flood-opacity="0" result="BackgroundImageFix"/>
<feColorMatrix in="SourceAlpha" type="matrix" values="0 0 0 0 0 0 0 0 0 0 0 0 0 0 0 0 0 0 127 0" result="hardAlpha"/>
<feOffset dy="3.55556"/>
<feGaussianBlur stdDeviation="6.66667"/>
<feComposite in2="hardAlpha" operator="out"/>
<feColorMatrix type="matrix" values="0 0 0 0 0.0533385 0 0 0 0 0.0441146 0 0 0 0 0.320833 0 0 0 0.05 0"/>
<feBlend mode="normal" in2="BackgroundImageFix" result="effect1_dropShadow_2772_2189"/>
<feBlend mode="normal" in="SourceGraphic" in2="effect1_dropShadow_2772_2189" result="shape"/>
</filter>
</defs>
</svg>
