<svg width="71" height="65" viewBox="0 0 71 65" fill="none" xmlns="http://www.w3.org/2000/svg">
<g filter="url(#filter0_d_2781_2564)">
<path d="M56.7392 24.4968C56.3823 23.0178 55.6085 21.6783 54.5121 20.6441C53.414 19.6081 52.0431 18.9227 50.5675 18.6733C47.5255 18.1902 44.5917 19.6674 42.4092 22.7492C40.2473 19.6971 37.3391 18.2147 34.3264 18.6611C32.8628 18.8948 31.4988 19.5541 30.3973 20.5621C29.2975 21.5685 28.5065 22.8783 28.1239 24.3328C27.5422 26.5966 27.8339 29.0017 28.9423 31.0529H26.9142C26.7564 31.0494 26.6037 31.1104 26.4905 31.222C26.3772 31.3337 26.312 31.4871 26.312 31.6493C26.312 31.8098 26.3772 31.9633 26.4905 32.0749C26.6037 32.1883 26.7564 32.2476 26.9142 32.2441H29.6235C30.2926 33.2696 31.0733 34.2149 31.9518 35.0625H31.2809C30.9583 35.0625 30.6958 35.3293 30.6958 35.6572V39.5814H22.3007V35.6572C22.3007 35.3293 22.0382 35.0625 21.7157 35.0625H16.9631C16.6406 35.0625 16.3781 35.3293 16.3781 35.6572V38.3361H15.5785C14.7069 38.3361 14.0018 39.0547 14 39.9389V43.1236C14.0017 44.0079 14.7069 44.7264 15.5785 44.7264H16.3781V47.4053C16.3781 47.7349 16.6389 48 16.9631 48H21.7157C22.0382 48 22.3007 47.7349 22.3007 47.4053V43.4828H30.6958V47.407V47.4053C30.6958 47.7349 30.9584 48 31.2809 48H36.0334C36.3577 48 36.6185 47.7349 36.6185 47.4053V44.7264H37.418C38.2897 44.7264 38.9948 44.0078 38.9948 43.1236V40.0278C40.0998 40.7778 41.0967 41.6777 41.9614 42.7015C42.0729 42.8358 42.2376 42.9126 42.4092 42.9126C42.5825 42.9126 42.7455 42.8358 42.857 42.7015C44.4406 40.79 46.3177 39.6546 48.1331 38.5594C49.1746 37.9576 50.1783 37.2932 51.1391 36.5711C55.7252 32.9731 57.767 28.5727 56.7392 24.4968ZM15.5779 43.5371C15.3531 43.5353 15.1713 43.3522 15.1713 43.1237V39.9391C15.1747 39.7123 15.3549 39.5292 15.5779 39.5257H16.3775V43.5354L15.5779 43.5371ZM21.1285 46.8125H17.5478V36.2522H21.1303L21.1285 46.8125ZM22.3004 42.2936V40.771H30.6955V42.2918L22.3004 42.2936ZM31.0526 32.2459H32.8199C33.0686 32.2459 33.2883 32.0872 33.3723 31.85L34.1787 29.56L35.9099 35.0625H33.7052C32.7169 34.2306 31.8265 33.2854 31.0526 32.2459ZM35.445 46.8107H31.8659V36.2522H35.4467L35.445 46.8107ZM37.8214 43.1237H37.8231C37.8214 43.3522 37.6412 43.5353 37.4164 43.537H36.6186V39.5274H37.4181C37.6412 39.5309 37.8214 39.714 37.8248 39.9407L37.8214 43.1237ZM50.4235 35.6277C49.5004 36.3218 48.5344 36.9584 47.5359 37.5339C45.8012 38.5821 44.0117 39.6634 42.4108 41.418C40.8101 39.6634 39.0205 38.5821 37.2858 37.5339C37.0662 37.4014 36.8432 37.2653 36.6201 37.1293L36.6184 35.8614C36.8792 35.8492 37.1006 35.6626 37.1589 35.4044L39.0514 27.2615L42.1175 37.3284H42.1158C42.1913 37.576 42.416 37.7469 42.6717 37.7469H42.6751H42.6734C42.929 37.7487 43.1538 37.5812 43.231 37.3353L45.2247 31.0216H49.3666C49.5244 31.0251 49.6789 30.9658 49.7921 30.8524C49.9053 30.7408 49.9688 30.5873 49.9688 30.4251C49.9688 30.2647 49.9053 30.1112 49.7921 29.9996C49.6789 29.8862 49.5244 29.8269 49.3666 29.8304H44.7977C44.542 29.8304 44.3172 29.9978 44.24 30.2437L42.6855 35.1707L39.5337 24.8194C39.4547 24.563 39.218 24.3921 38.9537 24.4008C38.6895 24.4095 38.4647 24.5979 38.4047 24.8595L36.5054 33.0409L34.7673 27.5246C34.6918 27.2804 34.4705 27.113 34.2183 27.1095C33.9678 27.1042 33.7413 27.2647 33.6572 27.5054L32.4081 31.0546H30.2771C29.0572 28.9233 28.6849 26.7188 29.2511 24.652C29.5737 23.4207 30.2411 22.3097 31.1711 21.4551C32.1027 20.6005 33.2574 20.0389 34.4945 19.8383C37.2689 19.4267 39.9696 20.9929 41.9136 24.1305V24.1322C42.0217 24.3049 42.2087 24.4095 42.4095 24.4095C42.6119 24.4095 42.799 24.3049 42.9053 24.1322C44.8647 20.9632 47.5929 19.404 50.3877 19.8488C51.6368 20.0633 52.7984 20.6476 53.7249 21.5248C54.6514 22.4038 55.3051 23.5392 55.6054 24.7915C56.5113 28.3843 54.622 32.3362 50.4235 35.6277ZM15.3584 24.2526H17.733V26.6682C17.733 26.9961 17.9955 27.2629 18.318 27.2629H21.7513C22.0756 27.2629 22.3381 26.996 22.3381 26.6682V24.2526H24.7127C24.8688 24.2526 25.0181 24.1898 25.1279 24.0782C25.2377 23.9683 25.2994 23.8166 25.2994 23.6579V20.168C25.2994 19.8401 25.0369 19.5732 24.7127 19.5732H22.3381V17.1595C22.3381 16.8298 22.0756 16.563 21.7513 16.563H18.3181C17.9955 16.563 17.733 16.8299 17.733 17.1595V19.5732H15.3584C15.0341 19.5732 14.7716 19.8401 14.7716 20.168V23.6596C14.7733 23.9875 15.0341 24.2526 15.3584 24.2526ZM15.9417 20.7627H18.3181C18.6424 20.7627 18.9049 20.4976 18.9049 20.168V17.7542H21.1662V20.1698V20.168C21.1662 20.4977 21.4287 20.7627 21.7513 20.7627H24.1259V23.0632H21.7513C21.5969 23.0632 21.4476 23.1259 21.3378 23.2376C21.228 23.3492 21.1662 23.5009 21.1662 23.6596V26.0734H18.9048V23.6596C18.9048 23.5009 18.8431 23.3492 18.7333 23.2376C18.6235 23.1259 18.4742 23.0632 18.3181 23.0632H15.9417L15.9417 20.7627ZM38.4627 15.8322L39.9932 15.8339V17.3879C39.9932 17.7175 40.2557 17.9826 40.5782 17.9826H43.0317C43.356 17.9826 43.6168 17.7175 43.6168 17.3879V15.8339H45.1473C45.3034 15.8339 45.451 15.7711 45.5608 15.6595C45.6706 15.5479 45.7324 15.3962 45.7324 15.2374V12.7469C45.7324 12.59 45.6706 12.4382 45.5608 12.3266C45.451 12.215 45.3034 12.1522 45.1473 12.1522H43.6168V10.5947C43.6168 10.2651 43.356 10 43.0317 10H40.5782C40.2557 10 39.9932 10.2651 39.9932 10.5947V12.1487H38.4644C38.1401 12.1487 37.8776 12.4155 37.8776 12.7452V15.2392V15.2374C37.8776 15.3961 37.9394 15.5479 38.0492 15.6595C38.159 15.7711 38.3083 15.8339 38.4644 15.8339L38.4627 15.8322ZM39.0477 13.3382H40.5765L40.5782 13.3399C40.7326 13.3399 40.8819 13.2771 40.9917 13.1655C41.1015 13.0539 41.1633 12.9021 41.1633 12.7452V11.1877H42.445V12.7434H42.4467C42.4467 13.0713 42.7075 13.3382 43.0318 13.3382H44.5622V14.641H43.0318C42.7092 14.641 42.4467 14.9078 42.4467 15.2357V16.7897L41.165 16.7914V15.2375C41.165 15.0805 41.1032 14.9287 40.9934 14.8171C40.8836 14.7055 40.7344 14.6427 40.5782 14.6427H39.0495L39.0477 13.3382Z" fill="black"/>
</g>
<defs>
<filter id="filter0_d_2781_2564" x="-2.33333" y="-4.77778" width="74.6667" height="74.6667" filterUnits="userSpaceOnUse" color-interpolation-filters="sRGB">
<feFlood flood-opacity="0" result="BackgroundImageFix"/>
<feColorMatrix in="SourceAlpha" type="matrix" values="0 0 0 0 0 0 0 0 0 0 0 0 0 0 0 0 0 0 127 0" result="hardAlpha"/>
<feOffset dy="3.55556"/>
<feGaussianBlur stdDeviation="6.66667"/>
<feComposite in2="hardAlpha" operator="out"/>
<feColorMatrix type="matrix" values="0 0 0 0 0.0533385 0 0 0 0 0.0441146 0 0 0 0 0.320833 0 0 0 0.05 0"/>
<feBlend mode="normal" in2="BackgroundImageFix" result="effect1_dropShadow_2781_2564"/>
<feBlend mode="normal" in="SourceGraphic" in2="effect1_dropShadow_2781_2564" result="shape"/>
</filter>
</defs>
</svg>
