<svg width="58" height="65" viewBox="0 0 58 65" fill="none" xmlns="http://www.w3.org/2000/svg">
<g filter="url(#filter0_d_2781_2547)">
<path d="M38.9125 35.6573C39.1598 35.5056 39.3935 35.3258 39.6071 35.1147C40.6952 34.0477 41.0215 32.5106 40.4598 31.1103L40.4363 31.0493C39.9805 29.9163 40.5153 28.648 41.6522 28.1615L41.7043 28.1401C41.7077 28.1384 41.7094 28.1384 41.7111 28.1368C43.1221 27.5348 44 26.222 44 24.7113C44 23.2055 43.1255 21.8944 41.7195 21.2907L41.6707 21.2693C41.6656 21.2677 41.6606 21.2644 41.6556 21.2627C40.5153 20.7778 39.9805 19.5079 40.4379 18.3683L40.4564 18.3188C41.0215 16.912 40.6953 15.3765 39.6054 14.3095C38.5173 13.2424 36.9515 12.9224 35.5187 13.4749C35.5119 13.4766 35.5069 13.4799 35.5018 13.4815L35.4548 13.5013C34.2977 13.9417 33.0094 13.4156 32.5183 12.3073L32.4948 12.2529C32.4931 12.2512 32.4931 12.2479 32.4914 12.2463C31.8792 10.8592 30.5406 10 29 10C27.4594 10 26.1207 10.8593 25.5069 12.2446C25.5052 12.2479 25.5052 12.2496 25.5035 12.2512L25.4833 12.299C24.9906 13.4139 23.7006 13.94 22.5452 13.4997L22.4982 13.4799C22.4931 13.4766 22.4864 13.475 22.4813 13.4733C21.0485 12.9208 19.4827 13.2408 18.3946 14.3079C17.3048 15.3749 16.9785 16.9104 17.5402 18.3122L17.5637 18.3733C18.0195 19.5079 17.4847 20.7762 16.3444 21.2628C16.3394 21.2644 16.3344 21.2677 16.3293 21.2693L16.2805 21.2908C14.8729 21.8944 14 23.2039 14 24.7113C14 26.222 14.8762 27.5348 16.2889 28.1368C16.2923 28.1385 16.294 28.1385 16.2957 28.1401L16.3461 28.1616C17.483 28.6497 18.0178 29.918 17.5604 31.056L17.5402 31.1055C16.9768 32.5106 17.3031 34.0478 18.3912 35.1164C18.6065 35.3275 18.8386 35.5073 19.0858 35.6591L14.7317 43.0574C14.5787 43.3163 14.6005 43.6412 14.7872 43.8803C14.9739 44.1178 15.2867 44.2234 15.5827 44.1459L20.1856 42.937L21.4184 47.4508C21.4975 47.7411 21.7464 47.9554 22.0508 47.9934C22.0844 47.9983 22.1164 48 22.15 48C22.4174 48 22.668 47.8615 22.8042 47.6289L27.752 39.2228C28.1422 39.3531 28.5609 39.4207 28.9932 39.4207H28.9999C29.4355 39.4207 29.8559 39.3514 30.2478 39.2211L35.1973 47.6273C35.3335 47.8598 35.5841 47.9983 35.8515 47.9983C35.8834 47.9983 35.9171 47.9967 35.9507 47.9918C36.2534 47.9522 36.5023 47.7378 36.5831 47.4491L37.8159 42.9353L42.4188 44.1442C42.7148 44.2217 43.0276 44.1178 43.2143 43.8787C43.401 43.6412 43.4228 43.3163 43.2698 43.0557L38.9125 35.6573ZM22.4056 45.3352L21.4486 41.8354C21.341 41.4396 20.9256 41.2054 20.522 41.311L16.9532 42.2494L20.5287 36.1785C21.1678 36.2709 21.8355 36.1983 22.4745 35.9509L22.5368 35.9278C23.6922 35.4809 24.9855 36.0053 25.4816 37.1202L25.5034 37.1713C25.5051 37.1746 25.5051 37.1763 25.5068 37.1779C25.7322 37.6859 26.055 38.1213 26.4469 38.4726L22.4056 45.3352ZM28.998 37.9381H28.993C28.0545 37.9381 27.2708 37.4334 26.8941 36.589L26.8722 36.5379C26.8706 36.5363 26.8706 36.533 26.8689 36.5313C26.0465 34.6759 23.9005 33.8051 21.9865 34.544L21.9243 34.5671C21.4097 34.7666 20.8816 34.7831 20.3972 34.6314C20.3922 34.6297 20.3871 34.6281 20.3821 34.6264C20.0474 34.5192 19.7329 34.3312 19.4622 34.0657C18.7962 33.4126 18.6044 32.5072 18.9509 31.6413L18.9694 31.5935C19.7245 29.7134 18.8365 27.6089 16.9462 26.8006C16.9428 26.7989 16.9412 26.7989 16.9378 26.7973L16.8857 26.7759C16.0229 26.4064 15.5099 25.6362 15.5099 24.711C15.5099 23.7874 16.0263 23.0156 16.889 22.6478C16.8941 22.6462 16.8991 22.6429 16.9041 22.6412L16.9529 22.6198C18.8382 21.8116 19.7245 19.7089 18.9711 17.8353L18.9475 17.7743C18.6011 16.9134 18.7928 16.0113 19.4605 15.3582C20.1248 14.7067 21.0431 14.5187 21.9159 14.8518L21.963 14.8716C21.9697 14.8749 21.9748 14.8766 21.9815 14.8782C23.9021 15.6187 26.0481 14.7446 26.872 12.8843L26.8939 12.8332C27.2706 11.9871 28.0577 11.4824 28.9995 11.4824C29.9413 11.4824 30.7284 11.9871 31.1051 12.8332L31.1303 12.8909C31.7526 14.2993 33.1418 15.1404 34.6133 15.1404C35.0808 15.1404 35.5551 15.0563 36.0176 14.8782C36.0243 14.8766 36.0294 14.8733 36.0361 14.8716L36.0832 14.8518C36.9577 14.5187 37.8743 14.7067 38.5403 15.3581C39.208 16.0112 39.398 16.9134 39.0499 17.7792L39.0314 17.8287C38.2762 19.7088 39.1609 21.8116 41.0479 22.6199L41.0966 22.6413C41.1017 22.643 41.1067 22.6463 41.1118 22.6479C41.9762 23.0157 42.4908 23.7876 42.4908 24.7111C42.4908 25.6347 41.9762 26.4066 41.1151 26.776L41.063 26.7974C41.0596 26.7991 41.0579 26.7991 41.0546 26.8007C39.1642 27.6072 38.2746 29.7133 39.028 31.5885L39.0516 31.6496C39.3963 32.5105 39.2046 33.4143 38.5386 34.069C38.2662 34.3362 37.95 34.5242 37.612 34.6314C37.6103 34.6314 37.6103 34.6314 37.6103 34.633C37.1226 34.7864 36.5894 34.7699 36.0698 34.5687L36.0176 34.5456C34.0987 33.8035 31.951 34.6759 31.1271 36.5363L31.1069 36.5841C30.7302 37.4318 29.9432 37.9381 28.998 37.9381ZM37.4758 41.3108C37.2824 41.2597 37.0756 41.2861 36.9023 41.385C36.7291 41.484 36.6013 41.6456 36.5508 41.8353L35.5939 45.335L31.5508 38.4691C31.9444 38.1178 32.269 37.6807 32.4943 37.1695L32.5162 37.1216C33.0106 36.0035 34.3056 35.479 35.4694 35.9276L35.5182 35.9457C36.1607 36.1948 36.83 36.2673 37.4708 36.1766L41.0463 42.2492L37.4758 41.3108ZM36.9948 24.7113C36.9948 20.3888 33.4092 16.8727 28.9997 16.8727C24.5901 16.8727 21.0028 20.3888 21.0028 24.7113C21.0028 29.0356 24.5901 32.5534 28.9997 32.5534C33.4076 32.5518 36.9948 29.0356 36.9948 24.7113ZM28.9997 31.0694C25.4242 31.0694 22.5149 28.2162 22.5149 24.7101C22.5149 21.2054 25.4244 18.3538 28.9997 18.3538C32.5735 18.3538 35.4815 21.2053 35.4815 24.7101C35.4815 28.218 32.5736 31.0694 28.9997 31.0694ZM32.5802 22.0215C32.8846 22.3018 32.8981 22.7719 32.6122 23.0704L28.4783 27.3731C28.3353 27.5215 28.1352 27.6056 27.9284 27.6056H27.9082C27.6929 27.6007 27.4911 27.505 27.3515 27.3434L25.3636 25.0427C25.0928 24.731 25.1332 24.2626 25.4511 23.9971C25.7689 23.7316 26.2466 23.7711 26.5173 24.0829L27.9587 25.7519L31.5123 22.0543C31.7965 21.7541 32.2758 21.7394 32.5802 22.0215Z" fill="black"/>
</g>
<defs>
<filter id="filter0_d_2781_2547" x="-8.33333" y="-4.77778" width="74.6667" height="74.6667" filterUnits="userSpaceOnUse" color-interpolation-filters="sRGB">
<feFlood flood-opacity="0" result="BackgroundImageFix"/>
<feColorMatrix in="SourceAlpha" type="matrix" values="0 0 0 0 0 0 0 0 0 0 0 0 0 0 0 0 0 0 127 0" result="hardAlpha"/>
<feOffset dy="3.55556"/>
<feGaussianBlur stdDeviation="6.66667"/>
<feComposite in2="hardAlpha" operator="out"/>
<feColorMatrix type="matrix" values="0 0 0 0 0.0533385 0 0 0 0 0.0441146 0 0 0 0 0.320833 0 0 0 0.05 0"/>
<feBlend mode="normal" in2="BackgroundImageFix" result="effect1_dropShadow_2781_2547"/>
<feBlend mode="normal" in="SourceGraphic" in2="effect1_dropShadow_2781_2547" result="shape"/>
</filter>
</defs>
</svg>
