<svg width="48" height="48" viewBox="0 0 48 48" fill="none" xmlns="http://www.w3.org/2000/svg">
<path d="M24.25 10.5C23.0095 10.5 22 9.4905 22 8.25C22 7.0095 23.0095 6 24.25 6C25.4905 6 26.5 7.0095 26.5 8.25C26.5 9.4905 25.4905 10.5 24.25 10.5ZM24.25 7.5C23.836 7.5 23.5 7.836 23.5 8.25C23.5 8.664 23.836 9 24.25 9C24.664 9 25 8.664 25 8.25C25 7.836 24.664 7.5 24.25 7.5Z" fill="black"/>
<path d="M24.2499 37.5C23.8359 37.5 23.4999 37.164 23.4999 36.75V12.1815C22.1499 12.996 20.0889 13.335 18.1794 13.6515C15.8514 14.034 13.2249 14.469 13.0134 15.6L17.4204 24.414C17.5374 24.6465 17.5239 24.9225 17.3874 25.143C17.2509 25.3635 17.0094 25.5 16.7499 25.5H7.74986C7.49036 25.5 7.24886 25.365 7.11236 25.1445C6.97586 24.924 6.96236 24.6465 7.07936 24.4155L11.5074 15.561C11.6679 13.206 14.8524 12.681 17.9364 12.171C20.6709 11.7195 23.4999 11.2515 23.4999 9.75C23.4999 9.336 23.8359 9 24.2499 9C24.6639 9 24.9999 9.336 24.9999 9.75V36.75C24.9999 37.164 24.6639 37.5 24.2499 37.5ZM8.96336 24H15.5364L12.2499 17.427L8.96336 24Z" fill="black"/>
<path d="M24.25 33C21.355 33 19 30.645 19 27.75C19 27.336 19.336 27 19.75 27C20.164 27 20.5 27.336 20.5 27.75C20.5 29.817 22.183 31.5 24.25 31.5C26.317 31.5 28 29.817 28 27.75C28 27.336 28.336 27 28.75 27C29.164 27 29.5 27.336 29.5 27.75C29.5 30.645 27.145 33 24.25 33Z" fill="black"/>
<path d="M31.75 42H16.75C16.336 42 16 41.664 16 41.25C16 38.307 19.624 36 24.25 36C28.876 36 32.5 38.307 32.5 41.25C32.5 41.664 32.164 42 31.75 42ZM17.6425 40.5H30.859C30.214 38.8125 27.4495 37.5 24.2515 37.5C21.0535 37.5 18.2875 38.8125 17.6425 40.5Z" fill="black"/>
<path d="M12.25 30C9.355 30 7 27.645 7 24.75C7 24.336 7.336 24 7.75 24C8.164 24 8.5 24.336 8.5 24.75C8.5 26.817 10.183 28.5 12.25 28.5C14.317 28.5 16 26.817 16 24.75C16 24.336 16.336 24 16.75 24C17.164 24 17.5 24.336 17.5 24.75C17.5 27.645 15.145 30 12.25 30Z" fill="black"/>
<path d="M40.75 25.5H31.75C31.4905 25.5 31.249 25.365 31.1125 25.1445C30.976 24.924 30.9625 24.6465 31.0795 24.4155L35.4865 15.6C35.275 14.4675 32.6485 14.034 30.3205 13.65C27.124 13.1235 23.5 12.525 23.5 9.75C23.5 9.336 23.836 9 24.25 9C24.664 9 25 9.336 25 9.75C25 11.2515 27.829 11.7195 30.565 12.171C33.6475 12.6795 36.832 13.2045 36.994 15.561L41.422 24.4155C41.539 24.648 41.5255 24.924 41.389 25.1445C41.2525 25.365 41.0095 25.5 40.75 25.5ZM32.9635 24H39.5365L36.25 17.427L32.9635 24Z" fill="black"/>
<path d="M36.25 30C33.355 30 31 27.645 31 24.75C31 24.336 31.336 24 31.75 24C32.164 24 32.5 24.336 32.5 24.75C32.5 26.817 34.183 28.5 36.25 28.5C38.317 28.5 40 26.817 40 24.75C40 24.336 40.336 24 40.75 24C41.164 24 41.5 24.336 41.5 24.75C41.5 27.645 39.145 30 36.25 30Z" fill="black"/>
</svg>
