<svg width="48" height="48" viewBox="0 0 48 48" fill="none" xmlns="http://www.w3.org/2000/svg">
<path d="M7.65625 14.9688C7.65625 16.9848 9.29645 18.625 11.3125 18.625C13.3286 18.625 14.9688 16.9848 14.9688 14.9688C14.9688 12.9527 13.3286 11.3125 11.3125 11.3125C9.29645 11.3125 7.65625 12.9527 7.65625 14.9688ZM13.6672 14.9688C13.6672 16.2672 12.6111 17.3233 11.3127 17.3233C10.0142 17.3233 8.95816 16.2672 8.95816 14.9688C8.95816 13.6703 10.0142 12.6142 11.3127 12.6142C12.6112 12.6142 13.6672 13.6703 13.6672 14.9688Z" fill="black"/>
<path d="M38.7745 34.8824C39.4588 34.1913 39.8812 33.2495 39.8812 32.2129C39.8812 30.0963 38.1278 28.375 35.9718 28.375C33.8174 28.375 32.0624 30.0963 32.0624 32.2129C32.0624 33.2511 32.4864 34.1913 33.1691 34.8824C31.6286 35.207 30.3304 36.1826 29.5953 37.5037C28.8587 36.1842 27.5621 35.207 26.0216 34.8824C26.7059 34.1913 27.1282 33.2495 27.1282 32.2129C27.1282 30.0963 25.3749 28.375 23.2189 28.375C21.0645 28.375 19.3095 30.0963 19.3095 32.2129C19.3095 33.2511 19.7335 34.1913 20.4162 34.8824C18.0031 35.3903 16.1875 37.4989 16.1875 40.0187V42.3571C16.1875 42.7123 16.4805 43 16.8423 43H42.3452C42.707 43 43 42.7123 43 42.3571V40.0187C43 37.4987 41.1845 35.3901 38.7713 34.8824H38.7745ZM35.9734 29.6609C37.4059 29.6609 38.5731 30.8052 38.5731 32.2131C38.5731 33.6193 37.4075 34.7652 35.9734 34.7652C34.541 34.7652 33.3737 33.6209 33.3737 32.2131C33.3737 30.8052 34.5393 29.6609 35.9734 29.6609ZM23.222 29.6609C24.6545 29.6609 25.8217 30.8052 25.8217 32.2131C25.8217 33.6193 24.6561 34.7652 23.222 34.7652C21.7896 34.7652 20.6223 33.6209 20.6223 32.2131C20.6223 30.8052 21.7879 29.6609 23.222 29.6609ZM17.5005 40.0191C17.5005 37.8302 19.3144 36.0495 21.5441 36.0495H24.8985C27.1283 36.0495 28.9421 37.8302 28.9421 40.0191V41.7147H17.5004L17.5005 40.0191ZM41.6937 41.7147H30.2519V40.0191C30.2519 37.8302 32.0658 36.0495 34.2955 36.0495H37.6499C39.8797 36.0495 41.6936 37.8302 41.6936 40.0191L41.6937 41.7147Z" fill="black"/>
<path d="M40.7362 4.00008H18.2017C16.9537 4.00008 15.9398 5.01404 15.9398 6.262V18.9753H7.24661C5.45593 18.9753 4 20.4312 4 22.2219V30.1664C4 31.4111 5.00746 32.4218 6.24563 32.4218H7.05159L7.28721 42.3647C7.29533 42.7173 7.58457 43 7.93718 43H13.9918C14.3444 43 14.6336 42.7173 14.6418 42.3647L15.0772 23.7398H15.9417V24.8464C15.9417 26.0976 16.9556 27.1148 18.2036 27.1148H40.7381C41.986 27.1148 43 26.0976 43 24.8464L42.9984 6.26191C42.9984 5.01396 41.9841 4.00008 40.7362 4.00008ZM11.6125 41.6986V32.3714C11.6125 32.0123 11.3217 31.7215 10.9626 31.7215C10.6035 31.7215 10.3126 32.0123 10.3126 32.3714V41.6986H8.57067L8.13518 23.2864C8.12706 22.9272 7.82807 22.6185 7.47057 22.6526C7.11146 22.6608 6.82709 22.9581 6.83686 23.3173L7.02211 31.122H6.24701C5.7173 31.122 5.30132 30.7027 5.30132 30.1665V22.222C5.30132 21.1301 6.15603 20.2753 7.24798 20.2753H16.588H16.5913H16.5945H22.5988C23.1951 20.2753 23.681 20.7612 23.681 21.3576C23.681 21.9539 23.1951 22.4398 22.5988 22.4398H14.4418C14.4191 22.4398 14.4012 22.4495 14.3784 22.4528C14.2257 22.4642 14.0876 22.5243 13.9836 22.6283C13.9689 22.6429 13.9624 22.6624 13.9494 22.677C13.9105 22.7241 13.8715 22.7713 13.8471 22.8298C13.8292 22.8704 13.8276 22.9159 13.8178 22.9598C13.8097 22.9988 13.7935 23.0345 13.7918 23.0751L13.3563 41.7H11.6144L11.6125 41.6986ZM41.6979 24.8446C41.6979 25.3792 41.2657 25.8131 40.736 25.8131H18.2015C17.6718 25.8131 17.2395 25.3792 17.2395 24.8446V23.738H22.5969C23.6564 23.738 24.5468 23.0361 24.8556 22.0773L33.6186 13.9365C33.8819 13.6928 33.8965 13.2801 33.6528 13.0168C33.4074 12.7536 32.9963 12.739 32.7331 12.9827L24.7662 20.3826C24.3925 19.5539 23.5638 18.9722 22.5969 18.9722H17.2395V6.26182C17.2395 5.7321 17.6718 5.29985 18.2015 5.29985H40.736C41.2657 5.29985 41.6979 5.7321 41.6979 6.26182L41.6979 24.8446Z" fill="black"/>
</svg>
