<svg id="Layer_1" data-name="Layer 1" xmlns="http://www.w3.org/2000/svg" viewBox="0 0 1080 1080"><defs><style>.cls-1{fill:none;}.cls-2{fill:#c50;}.cls-3{fill:#323232;}</style></defs><path class="cls-1" d="M699.13905,308.95311c9.71955,0,18.28352.19522,26.83192-.08456,4.1077-.13449,6.51107,1.2653,8.56916,4.85q42.4392,73.91643,85.22828,147.6311c2.97164,5.104,2.91724,8.57808-1.12186,12.83677-4.43641,4.67756-8.21452,9.97943-13.12643,16.05738,8.71609,0,16.27244.29675,23.79156-.10383,5.052-.26916,7.87042,1.47431,10.43015,5.92828Q914.58,626.28838,989.733,756.32747c8.29887,14.38645,16.54148,28.80607,24.95017,43.12809a7.55726,7.55726,0,0,1,.0145,8.5867q-29.7178,50.8039-59.16376,101.76594c-2.27631,3.9554-5.1006,4.67794-9.15611,4.67329q-106.27965-.12322-212.55949-.06413c-7.16674-.00018-14.33807-.14771-21.49831.0686-3.497.10553-5.70776-1.00232-7.49728-4.10585-3.70671-6.42846-7.80016-12.63392-12.23274-19.7283-4.17315,6.82707-8.09306,12.74941-11.47769,18.96334-1.9868,3.64753-4.44893,4.92718-8.55956,4.844-37.12689-.75136-74.25849-1.27095-111.38425-2.06638a11.17362,11.17362,0,0,1-6.734-2.93657c-4.59207-4.31017-8.73554-9.09824-13.4559-14.12116-3.307,5.58159-6.21259,9.92076-8.52132,14.55718-1.926,3.868-4.77527,4.59771-8.71719,4.58912q-68.40964-.14935-136.81981-.06389-108.23435.00321-216.46857.0921c-4.21118.00686-6.79765-1.15593-9.101-4.8535q-29.95924-48.09268-60.33613-95.92431c-2.15184-3.39459-1.948-5.995.01851-9.36806q99.75945-171.116,199.36023-342.32452,96.32982-165.4783,192.54932-331.02058c2.8404-4.8938,5.96866-6.56674,11.556-6.53051q56.92443.36915,113.85235.01445c5.00539-.0263,7.90157,1.41649,10.4567,5.87844q42.2351,73.75454,84.92505,147.24816c2.101,3.62355,2.044,6.37607-.341,9.76707C708.65935,294.1245,704.29149,301.10923,699.13905,308.95311ZM166.38821,902.89761c1.28627-2.03834,2.26071-3.486,3.13885-4.98993q8.867-15.18484,17.70162-30.38877,100.00232-171.2541,200.012-342.50379,55.30077-94.69445,110.68414-189.34055c1.01825-1.73759,3.21927-3.9401,4.7847-3.87591,1.59025.06523,3.56628,2.41175,4.52329,4.21132,4.203,7.90342,8.095,15.97208,12.10585,23.97771,3.5426,7.07093,7.09333,14.13781,10.89024,21.70429a30.04275,30.04275,0,0,0,1.85675-2.42684q26.01651-44.48332,52.07186-88.94372c1.50718-2.55917,1.06716-4.32871-.26731-6.64385Q542.91133,212.58435,502.04546,141.426c-.846-1.471-1.78293-2.88979-2.95571-4.78174-1.14644,1.70568-1.91339,2.72112-2.54991,3.81261q-14.39508,24.68321-28.75978,49.3841Q381.53563,338.01376,295.28984,486.18575,202.39492,645.75089,109.41409,805.26593c-1.61922,2.77645-1.64248,4.69775.114,7.44551,11.48907,17.97247,22.76171,36.08317,34.12115,54.13856C151.08782,878.67327,158.55341,890.47941,166.38821,902.89761Zm417.139-95.21954c-2.97928,0-4.87695.00006-6.7746.00006q-111.17567.00027-222.35131-.00215c-7.586-.00047-8.97189-2.26831-5.2511-8.75659Q403.09719,704.84671,457.076,610.79234q47.63694-83.049,95.31768-166.07274c1.63159-2.83476,1.5481-4.84766-.21231-7.50411-3.59536-5.42527-6.6841-11.18627-10.28048-16.6108-2.09653-3.16229-2.05054-5.782-.02553-8.95014,3.46531-5.42148,6.569-11.07415,10.28653-17.4182-7.151,0-13.30073-.13929-19.44007.05316-3.581.11224-5.6873-1.27793-7.23794-4.495-4.87614-10.11648-9.96738-20.12955-15.00077-30.16992-2.57628-5.139-5.20676-10.2508-8.21255-16.161-109.80883,188.06068-219.11435,375.25933-328.87593,563.239,2.52806,0,3.96236.00006,5.39664,0q171.038-.00555,342.07587.06938c3.44921.0028,5.18979-1.241,6.83691-4.09655,8.70542-15.09246,17.62-30.06425,26.45735-45.08059C563.73167,841.33305,573.29688,825.06837,583.52725,807.67807Zm422.2932-7.75869c-1.48355-2.67766-2.3903-4.37406-3.35092-6.03939q-84.177-145.93756-168.30226-291.9048c-1.64313-2.85326-3.32986-4.088-6.7754-4.07311-35.17278.15188-70.3464.10124-105.51978.12277-1.56086.001-3.12161.152-5.47254.27426,1.18814,2.22888,2.025,3.90948,2.95875,5.53438q55.9587,97.37936,111.928,194.75257c4.07686,7.09515,2.81862,9.23622-5.37525,9.23861q-51.04971.01485-102.09941.00644h-5.85756c1.212,2.29372,1.89851,3.72711,2.70105,5.09237,16.1675,27.504,32.41094,54.96376,48.44655,82.5444,1.99175,3.4258,4.21741,4.54229,8.11006,4.53621q111.3822-.17351,222.76486-.08465C1001.56767,799.91944,1003.15872,799.91938,1005.82045,799.91938ZM557.6867,902.52632c1.14233-1.44179,1.79832-2.12818,2.29391-2.91562q29.14032-46.30161,58.32594-92.57428c1.77908-2.80591,1.06287-4.536-.53391-6.90127-19.86049-29.41974-39.44889-59.02566-59.58242-88.25641-4.03036-5.85147-4.11624-9.937-.5161-16.02188q65.66316-110.9821,130.87622-222.23067c1.73577-2.94563,1.64724-5.0254-.01569-7.90777q-40.27419-69.80626-80.3592-139.7216c-.91588-1.59329-1.99522-3.09265-3.15377-4.875a24.71174,24.71174,0,0,0-1.51523,1.97027c-17.85681,30.10768-35.74532,60.19692-53.41967,90.41141-.84546,1.44534-.45582,4.40028.48544,5.98142q13.61721,22.87436,27.72576,45.45374c2.24355,3.57546,2.03261,6.28683-.04439,9.80992Q513.26236,584.9875,448.46941,695.34317c-.76492,1.30137-1.37206,2.6955-2.36072,4.65719,2.47943,0,4.07755-.0006,5.6757.00011,24.10609.01062,48.21241.07624,72.318-.0269,3.6339-.01551,5.97349,1.09938,7.96653,4.26943q29.50752,46.93353,59.35659,93.651c2.81881,4.39244,2.60871,7.58826.01426,11.91895q-22.46573,37.5006-44.36844,75.337c-.84316,1.44776-1.29274,4.29532-.46778,5.33844C549.90832,894.66652,553.78839,898.38969,557.6867,902.52632Zm158.64144,4.17046c2.66591,0,4.1222-.00006,5.57843,0q110.8922.001,221.78426.07547c3.35075.00441,5.25254-1.0016,6.93791-3.92194q26.36115-45.67809,52.94625-91.22686c.61557-1.06012,1.017-2.2445,1.67409-3.72138-1.917-.08787-3.353-.21117-4.78908-.21135q-112.11336-.01683-224.22665-.09617c-3.486-.00519-5.14009,1.31271-6.74295,4.19039q-22.335,40.10015-44.9215,80.05991C721.96718,896.47572,719.41325,901.13351,716.32814,906.69678ZM707.5419,283.314c-1.12968-2.29184-1.74628-3.744-2.52847-5.10064Q664.15421,207.34394,623.333,136.45278c-1.76774-3.07851-3.702-4.21019-7.2691-4.19612-35.01494.13811-70.03068.0802-105.04621.094-1.38992.00055-2.77979.16156-4.79036.28631,1.08366,2.06851,1.83829,3.63653,2.7031,5.14123q40.64232,70.71463,81.22882,141.4611c1.78953,3.12893,3.75694,4.16526,7.28337,4.15222,34.68934-.12838,69.37927-.07752,104.06909-.07754Zm105.40685,182.5359c-.94511-1.88416-1.45331-3.03959-2.08016-4.12658Q770.118,391.059,729.4273,320.36025c-1.74758-3.04614-3.75156-3.819-6.99666-3.81074-35.18221.08978-70.36471.04829-105.5471.06449-1.39079.00062-2.78152.22018-4.64388.37758.9098,1.80978,1.4925,3.12421,2.2052,4.364q40.409,70.29277,80.76521,140.61565c1.70225,2.97528,3.56276,3.97062,6.89818,3.95257,24.43159-.13231,48.86419-.07307,73.29644-.07388C787.61148,465.84951,799.81826,465.84987,812.94875,465.84987ZM823.13193,700.0142c-38.12951-66.33485-75.712-131.718-113.70327-197.81227-1.42026,2.2531-2.39419,3.68547-3.25626,5.18224-16.65828,28.92219-33.22762,57.89627-50.04732,86.72417-2.11011,3.61657-1.99361,6.135.09813,9.652q27.341,45.971,54.26933,92.18664c1.79614,3.07848,3.79583,4.17636,7.31438,4.15936,28.50458-.13756,57.01011-.0862,85.51534-.09193C809.49635,700.01312,815.67043,700.0142,823.13193,700.0142ZM357.89278,799.52256H582.68606c-.59542-1.20079-.88337-1.9401-1.2997-2.59821-18.18425-28.74707-36.33175-57.51794-54.70224-86.14564-1.02356-1.59505-3.89746-2.8262-5.917-2.83616-35.33-.17455-70.66125-.09486-105.99182-.20015-3.138-.00936-4.92441.87007-6.53339,3.71357-12.74323,22.52061-25.69057,44.92567-38.563,67.3732C365.82573,785.5485,362.01084,792.28978,357.89278,799.52256ZM808.6196,474.00885c-1.69348-.22669-2.29808-.37815-2.90262-.37839-35.01857-.01244-70.03726-.05324-105.05506.11436a6.94524,6.94524,0,0,0-4.826,2.95156c-3.79708,5.8734-7.191,12.0073-10.73809,18.04248q-58.65442,99.79793-117.2989,199.60158c-.93317,1.58842-1.6981,3.2757-2.64377,5.11586a11.485,11.485,0,0,0,2,.496c36.3209.03061,72.642.08531,108.96209-.08113,1.55162-.007,3.75151-1.73523,4.52105-3.239,2.6649-5.20756,4.62814-10.77245,7.26016-15.999,1.65321-3.28286,1.4007-5.79969-.49137-8.96348-13.3703-22.35649-26.464-44.87824-39.81971-67.24351-2.2522-3.77143-2.54224-6.78644-.23683-10.752q28.59812-49.19349,56.7802-98.628c2.03649-3.56619,4.43038-4.93028,8.55216-4.90385,26.05933.16715,52.12045.1157,78.18049.019,1.95889-.00728,4.59145-.29553,5.74929-1.53671C800.69161,484.25216,804.264,479.40715,808.6196,474.00885ZM566.13852,904.52953c1.874.2008,2.95948.40285,4.04808.4214,33.38487.56785,66.77106,1.06949,100.15366,1.746,3.28548.06664,4.47887-1.67957,5.88488-4.02054q27.03423-45.01191,54.17352-89.96075c.85629-1.42181,1.56248-2.93394,2.54416-4.79343-1.648-.11114-2.45247-.21249-3.25691-.21273-33.06542-.011-66.131.0312-99.1959-.09253-2.94432-.011-4.3097,1.271-5.70269,3.49822q-23.18357,37.06714-46.49507,74.05429C574.34075,891.45727,570.39507,897.74876,566.13852,904.52953ZM732.968,799.64986c-.58-1.32959-.77814-1.94618-1.09729-2.49214q-25.24146-43.179-50.431-86.38808c-1.66-2.86426-3.815-2.97635-6.49426-2.974q-51.74355.045-103.48707.01867c-1.722-.00006-3.444-.00006-5.87226-.00006.98815,1.86469,1.479,3.03243,2.1723,4.06409q28.44264,42.32869,56.8604,84.67379c1.78636,2.67563,3.763,3.43629,6.81722,3.4271,32.21755-.09724,64.43545-.06,96.6533-.07457C729.49788,799.904,730.90644,799.76159,732.968,799.64986ZM414.81863,700.07707c6.512,0,11.73062-.29183,16.89833.09587,3.87025.29034,5.787-1.31963,7.63288-4.476q33.7671-57.73812,67.75706-115.346,31.5562-53.65971,63.05868-107.35092c.74386-1.26993,1.56769-3.39755,1.01845-4.37428-3.69522-6.57159-7.75192-12.93991-12.13359-20.09609C510.83052,532.62766,463.11423,615.84718,414.81863,700.07707Zm294.22173,8.556c-3.35909,4.154-6.15165,7.90825-9.27559,11.36273-2.01036,2.22321-1.80265,3.90029-.34445,6.36814,14.07476,23.82073,27.90815,47.78462,42.07848,71.54778,2.485,4.16724,2.69907,7.25526.09508,11.49564-14.309,23.30083-28.3268,46.78081-42.36075,70.24939-.8261,1.38143-1.79806,3.68971-1.21374,4.73337,3.38815,6.05149,7.2227,11.85309,11.19528,18.20113.923-1.30942,1.52782-2.02528,1.97863-2.82758q26.06845-46.39975,52.17342-92.77889c1.43422-2.53658,1.12462-4.31578-.26057-6.64655q-18.08494-30.43025-35.9814-60.97254C721.19955,729.30556,715.2821,719.24085,709.04036,708.63311ZM701.33912,291.437c-1.84751-.1749-2.62523-.31268-3.403-.313-33.865-.01309-67.73041.05187-101.59467-.11444-3.53967-.01739-4.7957,1.90051-6.209,4.32058Q564.89451,338.5434,539.64,381.74686c-.7702,1.31921-1.365,2.74081-2.32779,4.696,5.383,0,9.93854-.25159,14.45165.07782,3.75846.2743,5.85777-1.09192,7.75727-4.33979,13.146-22.47783,26.63759-44.75452,39.66725-67.29866,2.66019-4.60266,5.67484-6.14852,10.85078-6.0971,25.23353.25094,50.47082.1642,75.70631.06759,1.74478-.00665,4.1991-.52947,5.10263-1.73058C694.44244,302.34387,697.55259,297.20131,701.33912,291.437ZM693.5676,715.46029c3.45025-4.31512,6.68932-8.15742,9.63615-12.21209a4.36,4.36,0,0,0,.304-3.81564c-2.59725-4.86037-5.49886-9.55806-8.35864-14.424C685.45754,697.74708,685.06358,704.29675,693.5676,715.46029Z"/><path class="cls-2" d="M166.38821,902.89761c-7.8348-12.4182-15.30039-24.22434-22.73892-36.04761-11.35944-18.05539-22.63208-36.16609-34.12115-54.13856-1.75653-2.74776-1.73327-4.66906-.114-7.44551q93.01732-159.49374,185.87575-319.08018Q381.54779,338.02088,467.78006,189.841q14.374-24.69545,28.75978-49.3841c.63652-1.09149,1.40347-2.10693,2.54991-3.81261,1.17278,1.89195,2.10966,3.3107,2.95571,4.78174q40.91054,71.13258,81.84473,142.25154c1.33447,2.31514,1.77449,4.08468.26731,6.64385q-26.15064,44.40432-52.07186,88.94372a30.04275,30.04275,0,0,1-1.85675,2.42684c-3.79691-7.56648-7.34764-14.63336-10.89024-21.70429-4.01088-8.00563-7.90288-16.07429-12.10585-23.97771-.957-1.79957-2.933-4.14609-4.52329-4.21132-1.56543-.06419-3.76645,2.13832-4.7847,3.87591Q442.484,430.28705,387.24067,525.01512q-100.00879,171.25035-200.012,342.50379-8.86708,15.18483-17.70162,30.38877C168.64892,899.41157,167.67448,900.85927,166.38821,902.89761Z"/><path class="cls-3" d="M583.52725,807.67807c-10.23037,17.3903-19.79558,33.655-29.3659,49.91674-8.83734,15.01634-17.75193,29.98813-26.45735,45.08059-1.64712,2.85555-3.3877,4.09935-6.83691,4.09655q-171.03787-.14049-342.07587-.06938c-1.43428.00006-2.86858,0-5.39664,0,109.76158-187.9797,219.0671-375.17835,328.87593-563.239,3.00579,5.91023,5.63627,11.022,8.21255,16.161,5.03339,10.04037,10.12463,20.05344,15.00077,30.16992,1.55064,3.21709,3.657,4.60726,7.23794,4.495,6.13934-.19245,12.289-.05316,19.44007-.05316-3.71753,6.344-6.82122,11.99672-10.28653,17.4182-2.025,3.16814-2.071,5.78785.02553,8.95014,3.59638,5.42453,6.68512,11.18553,10.28048,16.6108,1.76041,2.65645,1.8439,4.66935.21231,7.50411Q504.63441,527.69821,457.076,610.79234q-53.9568,94.067-107.92571,188.12705c-3.72079,6.48828-2.33492,8.75612,5.2511,8.75659q111.17566.00636,222.35131.00215C578.6503,807.67813,580.548,807.67807,583.52725,807.67807Z"/><path class="cls-2" d="M1005.82045,799.91938c-2.66173,0-4.25278.00006-5.84384.00006q-111.38246-.00045-222.76486.08465c-3.89265.00608-6.11831-1.11041-8.11006-4.53621-16.03561-27.58064-32.279-55.04036-48.44655-82.5444-.80254-1.36526-1.4891-2.79865-2.70105-5.09237h5.85756q51.04971-.00133,102.09941-.00644c8.19387-.00239,9.45211-2.14346,5.37525-9.23861Q775.331,601.20479,719.3583,503.83349c-.93377-1.6249-1.77061-3.3055-2.95875-5.53438,2.35093-.12223,3.91168-.2733,5.47254-.27426,35.17338-.02153,70.347.02911,105.51978-.12277,3.44554-.01485,5.13227,1.21985,6.7754,4.07311Q918.242,647.97159,1002.46953,793.88C1003.43015,795.54532,1004.3369,797.24172,1005.82045,799.91938Z"/><path class="cls-3" d="M557.6867,902.52632c-3.89831-4.13663-7.77838-7.8598-11.08313-12.038-.825-1.04312-.37538-3.89068.46778-5.33844q22.00173-37.77549,44.36844-75.337c2.59445-4.33069,2.80455-7.52651-.01426-11.91895q-29.94172-46.65684-59.35659-93.651c-1.993-3.17005-4.33263-4.28494-7.96653-4.26943-24.10561.10314-48.21193.03752-72.318.0269-1.59815-.00071-3.19627-.00011-5.6757-.00011.98866-1.96169,1.5958-3.35582,2.36072-4.65719Q513.31751,585.02,578.25359,474.74863c2.077-3.52309,2.28794-6.23446.04439-9.80992q-14.149-22.549-27.72576-45.45374c-.94126-1.58114-1.3309-4.53608-.48544-5.98142,17.67435-30.21449,35.56286-60.30373,53.41967-90.41141a24.71174,24.71174,0,0,1,1.51523-1.97027c1.15855,1.7823,2.23789,3.28166,3.15377,4.875q40.16376,69.87,80.3592,139.7216c1.66293,2.88237,1.75146,4.96214.01569,7.90777q-65.46786,111.098-130.87622,222.23067c-3.60014,6.08484-3.51426,10.17041.5161,16.02188,20.13353,29.23075,39.72193,58.83667,59.58242,88.25641,1.59678,2.36531,2.313,4.09536.53391,6.90127q-29.29491,46.20345-58.32594,92.57428C559.485,900.39814,558.829,901.08453,557.6867,902.52632Z"/><path class="cls-3" d="M716.32814,906.69678c3.08511-5.56327,5.639-10.22106,8.24076-14.85193q22.48265-40.01772,44.9215-80.05991c1.60286-2.87768,3.257-4.19558,6.74295-4.19039q112.11309.16563,224.22665.09617c1.43606.00018,2.87213.12348,4.78908.21135-.6571,1.47688-1.05852,2.66126-1.67409,3.72138q-26.48419,45.607-52.94625,91.22686c-1.68537,2.92034-3.58716,3.92635-6.93791,3.92194q-110.892-.14523-221.78426-.07547C720.45034,906.69672,718.99405,906.69678,716.32814,906.69678Z"/><path class="cls-2" d="M812.94875,465.84987c-13.13049,0-25.33727-.00036-37.54406,0-24.43225.00081-48.86485-.05843-73.29644.07388-3.33542.018-5.19593-.97729-6.89818-3.95257q-40.26415-70.37555-80.76521-140.61565c-.7127-1.23977-1.2954-2.5542-2.2052-4.364,1.86236-.1574,3.25309-.377,4.64388-.37758,35.18239-.0162,70.36489.02529,105.5471-.06449,3.2451-.00826,5.24908.7646,6.99666,3.81074q40.59329,70.75455,81.44129,141.363C811.49544,462.81028,812.00364,463.96571,812.94875,465.84987Z"/><path class="cls-3" d="M823.13193,700.0142c-7.4615,0-13.63558-.00108-19.80967.00017-28.50523.00573-57.01076-.04563-85.51534.09193-3.51855.017-5.51824-1.08088-7.31438-4.15936q-26.95486-46.19871-54.26933-92.18664c-2.09174-3.517-2.20824-6.03539-.09813-9.652,16.8197-28.8279,33.389-57.802,50.04732-86.72417.86207-1.49677,1.836-2.92914,3.25626-5.18224C747.41988,568.29617,785.00242,633.67935,823.13193,700.0142Z"/><path class="cls-2" d="M357.89278,799.52256c4.11806-7.23278,7.933-13.97406,11.78614-20.69339,12.87247-22.44753,25.81981-44.85259,38.563-67.3732,1.609-2.8435,3.3954-3.72293,6.53339-3.71357,35.33057.10529,70.66179.0256,105.99182.20015,2.01949.01,4.89339,1.24111,5.917,2.83616,18.37049,28.6277,36.518,57.39857,54.70224,86.14564.41633.65811.70428,1.39742,1.2997,2.59821Z"/><path class="cls-3" d="M808.6196,474.00885c-4.35563,5.3983-7.928,10.24331-12.00694,14.61579-1.15784,1.24118-3.7904,1.52943-5.74929,1.53671-26.06.0967-52.12116.14815-78.18049-.019-4.12178-.02643-6.51567,1.33766-8.55216,4.90385q-28.21773,49.4128-56.7802,98.628c-2.30541,3.9656-2.01537,6.98061.23683,10.752,13.35574,22.36527,26.44941,44.887,39.81971,67.24351,1.89207,3.16379,2.14458,5.68062.49137,8.96348-2.632,5.22659-4.59526,10.79148-7.26016,15.999-.76954,1.50372-2.96943,3.23191-4.52105,3.239-36.32006.16644-72.64119.11174-108.96209.08113a11.485,11.485,0,0,1-2-.496c.94567-1.84016,1.7106-3.52744,2.64377-5.11586q58.63556-99.80885,117.2989-199.60158c3.54707-6.03518,6.941-12.16908,10.73809-18.04248a6.94524,6.94524,0,0,1,4.826-2.95156c35.0178-.1676,70.03649-.1268,105.05506-.11436C806.32152,473.6307,806.92612,473.78216,808.6196,474.00885Z"/><path class="cls-3" d="M566.13852,904.52953c4.25655-6.78077,8.20223-13.07226,12.15373-19.3601q23.26311-37.01739,46.49507-74.05429c1.393-2.22721,2.75837-3.50919,5.70269-3.49822,33.06494.12373,66.13048.08149,99.1959.09253.80444.00024,1.60889.10159,3.25691.21273-.98168,1.85949-1.68787,3.37162-2.54416,4.79343q-27.08766,44.97987-54.17352,89.96075c-1.406,2.341-2.5994,4.08718-5.88488,4.02054-33.3826-.67648-66.76879-1.17812-100.15366-1.746C569.098,904.93238,568.01252,904.73033,566.13852,904.52953Z"/><path class="cls-2" d="M732.968,799.64986c-2.06155.11173-3.47011.25413-4.87868.25478-32.21785.01456-64.43575-.02267-96.6533.07457-3.05426.00919-5.03086-.75147-6.81722-3.4271q-28.31642-42.4128-56.8604-84.67379c-.69328-1.03166-1.18415-2.1994-2.1723-4.06409,2.42822,0,4.15024,0,5.87226.00006q51.74351.0008,103.48707-.01867c2.67928-.00233,4.83424.10976,6.49426,2.974q25.0794,43.2729,50.431,86.38808C732.18985,797.70368,732.388,798.32027,732.968,799.64986Z"/><path class="cls-3" d="M709.04036,708.63311c6.24174,10.60774,12.15919,20.67245,18.08439,30.73262q17.96487,30.50157,35.9814,60.97254c1.38519,2.33077,1.69479,4.11.26057,6.64655Q737.17165,853.313,711.1933,899.76371c-.45081.8023-1.05565,1.51816-1.97863,2.82758-3.97258-6.348-7.80713-12.14964-11.19528-18.20113-.58432-1.04366.38764-3.35194,1.21374-4.73337,14.034-23.46858,28.05173-46.94856,42.36075-70.24939,2.604-4.24038,2.38989-7.3284-.09508-11.49564-14.17033-23.76316-28.00372-47.727-42.07848-71.54778-1.4582-2.46785-1.66591-4.14493.34445-6.36814C702.88871,716.54136,705.68127,712.78716,709.04036,708.63311Z"/><path class="cls-3" d="M701.33912,291.437c-3.78653,5.76429-6.89668,10.90685-10.49106,15.68511-.90353,1.20111-3.35785,1.72393-5.10263,1.73058-25.23549.09661-50.47278.18335-75.70631-.06759-5.17594-.05142-8.19059,1.49444-10.85078,6.0971-13.02966,22.54414-26.52123,44.82083-39.66725,67.29866-1.8995,3.24787-3.99881,4.61409-7.75727,4.33979-4.51311-.32941-9.06865-.07782-14.45165-.07782.96277-1.95518,1.55759-3.37678,2.32779-4.696q25.23251-43.21635,50.49244-86.41668c1.41334-2.42007,2.66937-4.338,6.209-4.32058,33.86426.16631,67.72964.10135,101.59467.11444C698.71389,291.12434,699.49161,291.26212,701.33912,291.437Z"/><path class="cls-2" d="M506.2273,132.57381q55.84876-.127,111.69745-.254a7.46614,7.46614,0,0,1,3.25919,1.37834,7.96053,7.96053,0,0,1,2.149,2.69151c1.734,2.56968,37.2097,63.00936,84.20893,146.86119l-110.0993.07754a7.09418,7.09418,0,0,1-3.56742-.4968,7.97835,7.97835,0,0,1-2.89519-2.40485C588.2929,276.78069,513.51192,145.37642,506.2273,132.57381Z"/></svg>