<svg width="55" height="63" viewBox="0 0 55 63" fill="none" xmlns="http://www.w3.org/2000/svg">
<g filter="url(#filter0_d_2781_2507)">
<path d="M41.0738 42.872L38.4187 18.3077C38.4171 18.2924 38.4075 18.2795 38.4051 18.2643C38.397 18.2208 38.3825 18.1806 38.3648 18.1396C38.3504 18.1074 38.3375 18.0769 38.3182 18.0479C38.3077 18.0318 38.3045 18.0133 38.2925 17.998C38.2748 17.9763 38.2506 17.9651 38.2305 17.9458C38.2064 17.9232 38.1839 17.9023 38.1565 17.883C38.1195 17.8573 38.0817 17.838 38.0407 17.8219C38.0085 17.809 37.9772 17.7986 37.9434 17.7913C37.9016 17.7825 37.8613 17.7801 37.8187 17.7801C37.7978 17.7801 37.7785 17.772 37.7584 17.7744C37.7431 17.776 37.7311 17.7849 37.7158 17.7881C37.6739 17.7953 37.6361 17.8098 37.5959 17.8259C37.5589 17.8412 37.5243 17.8573 37.4922 17.879C37.4785 17.8878 37.4624 17.8903 37.4495 17.9007L35.2063 19.6195L34.2556 18.8586V14.2524C34.2556 13.9202 33.987 13.6516 33.6548 13.6516H30.3515V10.6008C30.3515 10.2686 30.0829 10 29.7507 10H25.3302C24.9981 10 24.7294 10.2686 24.7294 10.6008V13.6162H21.4261C21.0939 13.6162 20.8253 13.8848 20.8253 14.217V18.8265L19.7934 19.6203L17.6314 17.9015C17.6185 17.8911 17.6025 17.8886 17.5888 17.8798C17.5558 17.8573 17.5196 17.8412 17.4818 17.8251C17.444 17.8098 17.407 17.7962 17.3676 17.7889C17.3515 17.7857 17.3386 17.776 17.3217 17.7744C17.2984 17.772 17.2791 17.7801 17.2566 17.7801C17.2172 17.7801 17.1794 17.7825 17.14 17.7905C17.0933 17.7994 17.0515 17.813 17.0097 17.8315C16.9855 17.842 16.9638 17.8541 16.9413 17.8677C16.8955 17.8967 16.8561 17.9297 16.8199 17.9691C16.8102 17.9795 16.7965 17.9852 16.7869 17.9964C16.7788 18.0069 16.7772 18.0198 16.77 18.0302C16.7435 18.0688 16.7241 18.109 16.7073 18.1533C16.6936 18.1887 16.6815 18.2224 16.6751 18.2594C16.6719 18.2755 16.663 18.2892 16.6606 18.3061L14.0168 42.872C13.9292 43.6699 14.1866 44.4686 14.7214 45.0654C15.2539 45.6598 16.0156 46 16.8126 46H38.2667C39.059 46 39.8198 45.6622 40.3531 45.0718C40.892 44.4758 41.155 43.6756 41.0738 42.872ZM30.3499 14.8532H33.0524V18.0165C33.021 18.0069 32.9897 17.998 32.9575 17.9908C32.9253 17.9836 32.8931 17.9779 32.861 17.9723C32.5207 17.9216 32.1644 18.0045 31.8845 18.2281L30.3499 19.4281V14.8532ZM25.9294 14.217V11.2016H25.9303H29.1483V14.2532V18.8876V18.8884V18.89L28.3231 18.2305C27.8654 17.8621 27.2019 17.8629 26.7426 18.2297L25.9294 18.882V14.217ZM22.0261 14.8178H24.7286V19.4659L23.1819 18.2281C22.8522 17.9643 22.4162 17.8975 22.0261 18.0149V14.8178ZM39.4611 44.2667C39.2287 44.5241 38.9311 44.6946 38.6029 44.7638C38.6029 44.7646 38.6029 44.7646 38.6021 44.7638C38.4935 44.7871 38.3809 44.7992 38.2659 44.7992H16.8118C16.6381 44.7992 16.47 44.7726 16.3107 44.7203C16.1523 44.6689 16.0027 44.5925 15.8668 44.4927C15.8217 44.4598 15.7783 44.4244 15.7365 44.3866C15.6938 44.348 15.6536 44.3077 15.615 44.2643C15.4646 44.0962 15.352 43.9 15.2828 43.6892C15.2764 43.6691 15.27 43.6482 15.2635 43.6273C15.2515 43.5863 15.241 43.5444 15.233 43.5018C15.2265 43.4721 15.2217 43.4423 15.2169 43.4117C15.2104 43.3659 15.2056 43.3192 15.2032 43.2718C15.2024 43.267 15.2024 43.2621 15.2024 43.2565C15.1984 43.1721 15.2008 43.0868 15.2104 43.0023L17.7368 19.5222L19.043 20.5606C19.3711 20.822 19.7958 20.8968 20.1883 20.7817C20.2221 20.7713 20.2559 20.76 20.2888 20.7472C20.2888 20.7472 20.2888 20.7472 20.2896 20.7472C20.3315 20.7319 20.3725 20.7134 20.4127 20.6917C20.4207 20.6884 20.4288 20.6836 20.4368 20.6796C20.4368 20.6796 20.4368 20.6796 20.4376 20.6796C20.502 20.6458 20.5647 20.6056 20.625 20.5598L21.8017 19.6107L22.4307 19.1675L24.1769 20.5646C24.205 20.5871 24.234 20.608 24.2637 20.6273C24.2927 20.6458 24.3232 20.6635 24.353 20.6804C24.353 20.6804 24.353 20.6812 24.3538 20.6812C24.3997 20.7061 24.4463 20.7279 24.4946 20.7464C24.5179 20.756 24.542 20.764 24.5661 20.7713C24.5967 20.7809 24.6273 20.7898 24.6578 20.797C24.7182 20.8115 24.7793 20.8212 24.8412 20.826C24.8436 20.826 24.846 20.826 24.8485 20.826C25.0881 20.8445 25.3327 20.7922 25.553 20.6707C25.5603 20.6675 25.5667 20.6651 25.5731 20.6619C25.582 20.6571 25.5916 20.6539 25.6005 20.6498C25.6101 20.6466 25.6198 20.6434 25.6286 20.6378C25.6753 20.6153 25.7179 20.5887 25.7525 20.5614L27.5718 19.1675L29.4081 20.6225C29.4121 20.6249 29.4169 20.6273 29.4209 20.6297C29.4298 20.6337 29.4378 20.637 29.4467 20.641C29.4515 20.6434 29.4563 20.645 29.4604 20.6466C29.4668 20.6498 29.4724 20.6531 29.4789 20.6563C29.4998 20.6667 29.5183 20.678 29.5408 20.686C29.6083 20.7214 29.6775 20.7512 29.7475 20.7753C29.7668 20.7817 29.7853 20.7882 29.8046 20.793C29.8295 20.8002 29.8553 20.8067 29.8802 20.8131C29.9566 20.83 30.0338 20.8397 30.1118 20.8397C30.3925 20.8397 30.6708 20.7455 30.8936 20.5614L32.7114 19.1651L33.2285 19.5785C33.2293 19.5793 33.2301 19.5793 33.2309 19.5801L33.3661 19.6879L34.4559 20.5606C34.5701 20.6522 34.698 20.7206 34.8315 20.7665C35.0994 20.8573 35.3913 20.8573 35.6584 20.7665C35.7919 20.7214 35.9198 20.6531 36.034 20.5614L37.3402 19.523L37.3426 19.5214L39.8794 42.9975C39.9252 43.46 39.7732 43.9217 39.4611 44.2667Z" fill="black"/>
<path d="M35.7123 24.7433C35.6954 24.6757 35.6745 24.6097 35.6504 24.5454C35.6271 24.4811 35.6005 24.4183 35.5708 24.3572C35.5418 24.2961 35.5088 24.2365 35.4735 24.1786C35.4389 24.1207 35.4011 24.0652 35.36 24.0105C35.3448 23.9904 35.3295 23.9703 35.3134 23.951C35.2659 23.8923 35.2153 23.836 35.1614 23.7821C34.9949 23.6148 34.8002 23.4765 34.5863 23.3727C34.3104 23.2408 34.0024 23.166 33.6766 23.166C32.5112 23.166 31.5629 24.1095 31.5629 25.2685C31.5629 25.5074 31.6031 25.7358 31.6763 25.9497C31.7592 26.1894 31.8846 26.4098 32.0431 26.6012C32.0785 26.6438 32.1155 26.6841 32.1533 26.7243C32.3841 26.9623 32.6712 27.1473 32.9914 27.2575C33.0187 27.2672 33.0452 27.2752 33.0726 27.2841H33.0734V30.5367C33.0734 31.9997 32.4951 33.3896 31.4479 34.4488C30.3983 35.4977 29.01 36.0743 27.5365 36.0743C26.9172 36.0743 26.322 35.9714 25.7655 35.7824C25.5089 35.6955 25.2612 35.5902 25.0231 35.4679C24.9829 35.447 24.9435 35.4261 24.904 35.4044C24.4343 35.1486 24.0056 34.8261 23.6308 34.4496C22.9962 33.8134 22.5144 33.0244 22.2474 32.1421C22.2177 32.044 22.1903 31.945 22.1662 31.8445C22.1421 31.7448 22.1203 31.6434 22.1018 31.5413C22.0994 31.5252 22.0962 31.5091 22.093 31.4922C22.0866 31.4536 22.0801 31.4142 22.0737 31.3756C22.0624 31.2976 22.052 31.2187 22.0431 31.1391C22.0222 30.9413 22.011 30.7402 22.011 30.5367V27.2833C22.8868 27.0219 23.515 26.2312 23.515 25.2685C23.515 25.0843 23.4917 24.9065 23.4466 24.7368C23.4314 24.6805 23.4145 24.625 23.3952 24.5703C23.3686 24.4979 23.3397 24.4272 23.3059 24.358C23.0686 23.8682 22.6447 23.4829 22.1276 23.2939C21.9008 23.2111 21.6563 23.166 21.4013 23.166C20.2423 23.166 19.2988 24.1095 19.2988 25.2685C19.2988 25.6553 19.4034 26.0173 19.586 26.3277C19.586 26.3277 19.5868 26.3277 19.5868 26.3286C19.6149 26.376 19.6447 26.4227 19.676 26.4677C19.7404 26.5578 19.8112 26.6438 19.8876 26.7235C19.9262 26.7621 19.9656 26.8007 20.0074 26.8377C20.0388 26.865 20.0702 26.8916 20.1031 26.9173C20.1361 26.943 20.1691 26.968 20.2037 26.9913C20.3637 27.1023 20.5391 27.1924 20.7273 27.2559C20.7538 27.2664 20.7812 27.2744 20.8085 27.2833H20.8093V30.5367C20.8093 31.2911 20.934 32.0174 21.1632 32.6963C21.4986 33.6864 22.0584 34.5743 22.7815 35.299C22.8764 35.3939 22.9745 35.4872 23.0751 35.5765C23.1756 35.6666 23.2793 35.7526 23.3855 35.8363C23.4281 35.8701 23.4708 35.903 23.5142 35.9352C23.6003 35.9995 23.6879 36.0623 23.7772 36.1226C23.9276 36.2248 24.082 36.3213 24.2413 36.4097C24.2952 36.4411 24.3507 36.4709 24.4062 36.5006C24.4609 36.5296 24.5172 36.5585 24.5735 36.5859C24.8333 36.7146 25.1027 36.8264 25.3802 36.9205C25.4421 36.9414 25.5049 36.9615 25.5684 36.9816C25.6947 37.0202 25.8226 37.0556 25.9513 37.0862C26.0156 37.1023 26.0807 37.1167 26.1459 37.1304C26.1684 37.136 26.1909 37.1409 26.2135 37.1449C26.6414 37.2309 27.0837 37.276 27.5365 37.276C28.1374 37.276 28.7269 37.1972 29.2923 37.0435C29.3736 37.0218 29.454 36.9985 29.5336 36.9736C29.6253 36.9454 29.7154 36.9148 29.8055 36.8827C29.9084 36.8465 30.0106 36.8071 30.1111 36.7644C30.9179 36.4299 31.6602 35.9344 32.2997 35.2958C33.5737 34.0089 34.275 32.3182 34.275 30.5367V27.2849C34.3289 27.2688 34.382 27.2503 34.4343 27.2294H34.4351C34.4608 27.2189 34.4866 27.2085 34.5123 27.1972C34.5895 27.1642 34.6635 27.1264 34.7351 27.0838C34.7592 27.0693 34.7826 27.0548 34.8059 27.0404C34.8525 27.0098 34.8976 26.9784 34.9418 26.9455C34.9643 26.9286 34.986 26.9117 35.007 26.894C35.0287 26.8771 35.0504 26.8594 35.0705 26.8401C35.0978 26.816 35.1236 26.791 35.1501 26.7661C35.1887 26.7275 35.2257 26.6881 35.2619 26.6471C35.2796 26.627 35.2973 26.606 35.3142 26.5851V26.5843C35.3319 26.5634 35.348 26.5425 35.3641 26.5208V26.52C35.4453 26.4106 35.5161 26.294 35.5756 26.1693C35.7059 25.8966 35.7791 25.5918 35.7791 25.2685C35.7791 25.11 35.7614 24.9556 35.7276 24.8068C35.7228 24.7851 35.718 24.7642 35.7123 24.7433ZM21.9908 25.9618C21.9691 25.9803 21.9466 25.998 21.9225 26.0141C21.8927 26.0342 21.8614 26.0527 21.8292 26.0704C21.797 26.0873 21.7632 26.1017 21.7286 26.1154C21.6595 26.142 21.5863 26.1605 21.5099 26.1701C21.4793 26.1741 21.4479 26.1765 21.4166 26.1773C21.4142 26.1773 21.4117 26.1757 21.4093 26.1757C21.4037 26.1757 21.3989 26.179 21.3932 26.179C20.9002 26.1749 20.4997 25.7688 20.4997 25.2677C20.4997 24.7714 20.9034 24.3668 21.4005 24.3668C21.904 24.3668 22.3134 24.7714 22.3134 25.2677C22.3134 25.517 22.2152 25.7406 22.0544 25.9031C22.0343 25.9232 22.0134 25.9425 21.9916 25.9618C21.9908 25.9618 21.9908 25.9618 21.9908 25.9618ZM34.567 25.406C34.563 25.4358 34.5565 25.4655 34.5493 25.4937C34.5316 25.5661 34.5043 25.6352 34.4697 25.6996C34.4568 25.7253 34.4415 25.7495 34.4254 25.7736C34.4094 25.7977 34.3925 25.8218 34.374 25.8444C34.3466 25.8781 34.3169 25.9095 34.2855 25.9385C34.2855 25.9393 34.2855 25.9393 34.2847 25.9385C34.2638 25.9586 34.2421 25.9771 34.2195 25.994C34.2195 25.9948 34.2195 25.9948 34.2187 25.994C34.1737 26.0294 34.1246 26.0599 34.0723 26.0857C34.0209 26.1114 33.9662 26.1323 33.9091 26.1476C33.8375 26.1669 33.7635 26.1781 33.6863 26.179C33.6815 26.179 33.6782 26.1765 33.6734 26.1765C33.6702 26.1765 33.667 26.1781 33.6638 26.1781C33.5568 26.1765 33.4538 26.1556 33.3581 26.1186C33.33 26.1082 33.3034 26.0961 33.2769 26.0824C33.2503 26.0696 33.2254 26.0559 33.2013 26.0406C33.1265 25.994 33.0589 25.9369 33.0002 25.8725C32.9809 25.8508 32.9624 25.8283 32.9455 25.8058C32.8321 25.6537 32.7637 25.4679 32.7637 25.2685C32.7637 25.0199 32.8659 24.7947 33.0316 24.6323C33.0621 24.6017 33.0951 24.5727 33.1305 24.547C33.1538 24.5301 33.178 24.514 33.2029 24.4979C33.2158 24.4907 33.2286 24.4835 33.2415 24.4762C33.293 24.4481 33.3477 24.4256 33.4048 24.4079C33.4193 24.403 33.4337 24.399 33.4482 24.3958C33.5214 24.3773 33.5978 24.3677 33.6766 24.3677C33.7313 24.3677 33.7844 24.3725 33.8359 24.3813C33.8745 24.3886 33.9131 24.3982 33.9501 24.4095C33.9622 24.4135 33.9742 24.4175 33.9863 24.4223C34.1238 24.473 34.2461 24.5567 34.3434 24.6636C34.3587 24.6797 34.3732 24.6974 34.386 24.7151C34.5059 24.8679 34.5775 25.0602 34.5775 25.2685C34.5775 25.3151 34.5742 25.361 34.567 25.406Z" fill="black"/>
</g>
<defs>
<filter id="filter0_d_2781_2507" x="-9.33333" y="-5.77778" width="74.6667" height="74.6667" filterUnits="userSpaceOnUse" color-interpolation-filters="sRGB">
<feFlood flood-opacity="0" result="BackgroundImageFix"/>
<feColorMatrix in="SourceAlpha" type="matrix" values="0 0 0 0 0 0 0 0 0 0 0 0 0 0 0 0 0 0 127 0" result="hardAlpha"/>
<feOffset dy="3.55556"/>
<feGaussianBlur stdDeviation="6.66667"/>
<feComposite in2="hardAlpha" operator="out"/>
<feColorMatrix type="matrix" values="0 0 0 0 0.0533385 0 0 0 0 0.0441146 0 0 0 0 0.320833 0 0 0 0.05 0"/>
<feBlend mode="normal" in2="BackgroundImageFix" result="effect1_dropShadow_2781_2507"/>
<feBlend mode="normal" in="SourceGraphic" in2="effect1_dropShadow_2781_2507" result="shape"/>
</filter>
</defs>
</svg>
