<svg width="64" height="63" viewBox="0 0 64 63" fill="none" xmlns="http://www.w3.org/2000/svg">
<g filter="url(#filter0_d_2765_1761)">
<path d="M49.3564 37.236H41.4148C41.1898 37.236 40.9825 37.1187 40.8651 36.9274C40.7494 36.7361 40.7398 36.4966 40.8426 36.2974L45.5374 27.1844C45.6547 26.9562 45.8958 26.8212 46.1514 26.8372C46.4069 26.8549 46.6271 27.0221 46.7139 27.2632L49.9606 36.3761C50.0313 36.5738 50.0007 36.7908 49.8802 36.9628C49.7596 37.1332 49.5636 37.236 49.3546 37.236L49.3564 37.236ZM42.471 35.9502H48.4454L46.0024 29.0936L42.4696 35.9502H42.471Z" fill="black"/>
<path d="M20.2909 23.9451C20.1881 23.9451 20.082 23.9194 19.9839 23.868C18.1067 22.849 16.9414 20.8897 16.9414 18.7568C16.9414 15.552 19.55 12.9434 22.7549 12.9434C25.9598 12.9434 28.5684 15.5519 28.5684 18.7568C28.5684 18.8244 28.5684 18.8919 28.5652 18.9594C28.5523 19.313 28.2534 19.6184 27.8998 19.5782C27.5446 19.5653 27.2681 19.2663 27.281 18.9127L27.2842 18.7584C27.2842 16.2608 25.2526 14.2308 22.7565 14.2308C20.2604 14.2308 18.2288 16.2623 18.2288 18.7584C18.2288 20.4204 19.1369 21.9456 20.5995 22.7396C20.9113 22.91 21.0271 23.299 20.8567 23.6108C20.7393 23.8245 20.5192 23.9467 20.2909 23.9467L20.2909 23.9451Z" fill="black"/>
<path d="M22.7562 12.0734C22.401 12.0734 22.1133 11.7857 22.1133 11.4305V10.6429C22.1133 10.2877 22.401 10 22.7562 10C23.1114 10 23.3991 10.2877 23.3991 10.6429V11.4305C23.3991 11.7857 23.1114 12.0734 22.7562 12.0734Z" fill="black"/>
<path d="M17.576 14.2189C17.4121 14.2189 17.2465 14.1562 17.1211 14.0308L16.565 13.4747C16.3143 13.224 16.3143 12.8173 16.565 12.565C16.8157 12.3143 17.224 12.3143 17.4747 12.565L18.0308 13.1211C18.2816 13.3719 18.2816 13.7801 18.0308 14.0308C17.9055 14.1562 17.7416 14.2189 17.576 14.2189Z" fill="black"/>
<path d="M15.4305 19.3971H14.6429C14.2877 19.3971 14 19.1094 14 18.7542C14 18.399 14.2877 18.1113 14.6429 18.1113H15.4305C15.7857 18.1113 16.0734 18.399 16.0734 18.7542C16.0734 19.1094 15.7857 19.3971 15.4305 19.3971Z" fill="black"/>
<path d="M17.0199 25.1329C16.8559 25.1329 16.6904 25.0703 16.565 24.9449C16.3143 24.6942 16.3143 24.2875 16.565 24.0352L17.1211 23.4791C17.3719 23.2283 17.7801 23.2283 18.0308 23.4791C18.2816 23.7298 18.2816 24.1365 18.0308 24.3888L17.4747 24.9449C17.3493 25.0703 17.1854 25.1329 17.0199 25.1329Z" fill="black"/>
<path d="M27.9359 14.2189C27.7719 14.2189 27.6064 14.1562 27.481 14.0308C27.2303 13.7801 27.2303 13.3734 27.481 13.1211L28.0371 12.565C28.2879 12.3143 28.6945 12.3143 28.9468 12.565C29.1976 12.8157 29.1976 13.2224 28.9468 13.4747L28.3907 14.0308C28.2653 14.1562 28.1014 14.2189 27.9359 14.2189Z" fill="black"/>
<path d="M41.4159 37.2378H17.0691C16.8441 37.2378 16.6368 37.1205 16.5194 36.9292C16.4037 36.738 16.3941 36.5001 16.4969 36.2992L24.4368 20.8839C24.5477 20.6702 24.7679 20.5352 25.009 20.5352H49.3575C49.5825 20.5352 49.7898 20.6525 49.9071 20.8437C50.0228 21.035 50.0325 21.2729 49.9296 21.4738L46.683 27.7757C46.5206 28.0907 46.1333 28.2177 45.8166 28.0521C45.5016 27.8898 45.3763 27.5024 45.5402 27.1858L48.3031 21.8208L25.4013 21.824L18.1234 35.9535H41.4157C41.7709 35.9535 42.0586 36.2412 42.0586 36.5964C42.0586 36.9516 41.7709 37.2393 41.4157 37.2393L41.4159 37.2378Z" fill="black"/>
<path d="M39.4564 34.0217H22.3406C22.1156 34.0217 21.9082 33.9044 21.7909 33.7131C21.6752 33.5218 21.6656 33.2839 21.7684 33.0831L26.3973 24.0968C26.5082 23.8831 26.7284 23.748 26.9695 23.748H44.0853C44.3104 23.748 44.5177 23.8654 44.635 24.0566C44.7507 24.2479 44.7604 24.4874 44.6575 24.6867L40.0286 33.6729C39.9177 33.8867 39.6975 34.0217 39.4564 34.0217ZM23.3952 32.7359H39.0643L43.031 25.0354H27.3619L23.3952 32.7359Z" fill="black"/>
<path d="M37.0797 43.1745H20.0445C18.8375 43.1745 17.8555 42.1925 17.8555 40.9855C17.8555 39.7784 18.8375 38.798 20.0445 38.798H28.1869C28.6337 38.798 28.9953 38.4347 28.9953 37.9879V36.596C28.9953 36.2408 29.283 35.9531 29.6382 35.9531C29.9934 35.9531 30.2811 36.2408 30.2811 36.596V37.9879C30.2811 39.1435 29.3409 40.0838 28.1869 40.0838H20.0445C19.5463 40.0838 19.1413 40.4888 19.1413 40.9855C19.1413 41.4821 19.5463 41.8887 20.0445 41.8887H37.0797C37.4349 41.8887 37.7226 42.1764 37.7226 42.5316C37.7226 42.8868 37.4349 43.1745 37.0797 43.1745Z" fill="black"/>
<path d="M42.7296 45.9975H39.904C37.9914 45.9975 36.4355 44.4417 36.4355 42.529C36.4355 40.6164 37.9914 39.0605 39.904 39.0605H42.7296C43.0848 39.0605 43.3725 39.3482 43.3725 39.7034V45.3544C43.3725 45.7096 43.0848 45.9975 42.7296 45.9975ZM39.904 40.3465C38.7002 40.3465 37.7214 41.3253 37.7214 42.5292C37.7214 43.733 38.7002 44.7118 39.904 44.7118H42.0867V40.3467L39.904 40.3465Z" fill="black"/>
<path d="M45.4982 41.8776H42.7288C42.3736 41.8776 42.0859 41.5899 42.0859 41.2347C42.0859 40.8795 42.3736 40.5918 42.7288 40.5918H45.4982C45.8534 40.5918 46.1411 40.8795 46.1411 41.2347C46.1411 41.5899 45.8534 41.8776 45.4982 41.8776Z" fill="black"/>
<path d="M45.4982 44.4674H42.7288C42.3736 44.4674 42.0859 44.1797 42.0859 43.8245C42.0859 43.4693 42.3736 43.1816 42.7288 43.1816H45.4982C45.8534 43.1816 46.1411 43.4693 46.1411 43.8245C46.1411 44.1797 45.8534 44.4674 45.4982 44.4674Z" fill="black"/>
<path d="M41.8274 29.4186H24.7132C24.358 29.4186 24.0703 29.1309 24.0703 28.7757C24.0703 28.4205 24.358 28.1328 24.7132 28.1328H41.8274C42.1826 28.1328 42.4703 28.4205 42.4703 28.7757C42.4703 29.1309 42.1826 29.4186 41.8274 29.4186Z" fill="black"/>
<path d="M27.6516 34.0226C27.5568 34.0226 27.462 34.0017 27.3703 33.9583C27.0505 33.804 26.9171 33.4183 27.073 33.0985L31.4382 24.1106C31.5925 23.7907 31.9782 23.6573 32.2964 23.8132C32.6163 23.9675 32.7497 24.3533 32.5938 24.6715L28.2286 33.6594C28.1177 33.8876 27.8879 34.021 27.65 34.021L27.6516 34.0226Z" fill="black"/>
<path d="M34.3196 34.0226C34.2248 34.0226 34.1299 34.0017 34.0383 33.9583C33.7185 33.804 33.5851 33.4183 33.741 33.0985L38.1061 24.1106C38.2604 23.7907 38.6462 23.6573 38.9644 23.8132C39.2842 23.9675 39.4177 24.3533 39.2617 24.6715L34.8966 33.6594C34.7857 33.8876 34.5558 34.021 34.318 34.021L34.3196 34.0226Z" fill="black"/>
</g>
<defs>
<filter id="filter0_d_2765_1761" x="-5.33333" y="-5.77778" width="74.6667" height="74.6667" filterUnits="userSpaceOnUse" color-interpolation-filters="sRGB">
<feFlood flood-opacity="0" result="BackgroundImageFix"/>
<feColorMatrix in="SourceAlpha" type="matrix" values="0 0 0 0 0 0 0 0 0 0 0 0 0 0 0 0 0 0 127 0" result="hardAlpha"/>
<feOffset dy="3.55556"/>
<feGaussianBlur stdDeviation="6.66667"/>
<feComposite in2="hardAlpha" operator="out"/>
<feColorMatrix type="matrix" values="0 0 0 0 0.0533385 0 0 0 0 0.0441146 0 0 0 0 0.320833 0 0 0 0.05 0"/>
<feBlend mode="normal" in2="BackgroundImageFix" result="effect1_dropShadow_2765_1761"/>
<feBlend mode="normal" in="SourceGraphic" in2="effect1_dropShadow_2765_1761" result="shape"/>
</filter>
</defs>
</svg>
