<svg width="48" height="63" viewBox="0 0 48 63" fill="none" xmlns="http://www.w3.org/2000/svg">
<g filter="url(#filter0_d_2765_1779)">
<path d="M30.328 18.2683C29.7532 19.1296 28.4338 21.2504 27.3426 24.0659L30.328 20.449C30.5579 20.2191 30.9028 20.2191 31.131 20.3924C32.5105 21.5968 33.2551 23.9509 33.1985 25.7884C33.1402 27.7976 32.3955 29.9217 30.9594 31.6426C30.7878 31.8159 30.6729 31.9892 30.5013 32.1608H31.5925C33.0835 32.1608 34.2914 33.367 34.2914 34.8597C34.2914 36.1808 33.2568 37.3287 31.9374 37.5037V40.7739C31.9374 43.6444 29.5833 46 26.7113 46H21.4286C18.5563 46 16.2025 43.6442 16.2025 40.7739V37.5037C14.8813 37.3304 13.8484 36.1808 13.8484 34.8597C13.8484 33.5385 14.7664 32.449 15.9725 32.2191C16.2025 32.1608 16.4324 32.1608 16.6606 32.1608C16.3174 31.8176 16.0292 31.4144 15.686 31.0146C14.3065 29.1204 13.5619 26.7063 13.5035 24.4673C13.4469 22.2282 14.0783 20.0477 15.3977 18.553C15.6276 18.2098 16.1441 18.2098 16.3757 18.553L17.5802 20.2173C17.6952 18.8412 18.0383 17.5184 18.4999 16.4271C19.1879 14.9361 20.1625 13.8432 21.3669 13.4417C21.7135 13.3267 22.0567 13.5566 22.115 13.9032L23.491 22.8013L23.721 24.409C24.9272 17.4054 26.3066 14.5911 26.9947 13.5585C26.6498 13.157 26.4199 12.6972 26.4199 12.1241C26.4199 10.9745 27.3962 10 28.6024 10C29.8086 10 30.7849 10.9763 30.7849 12.1241C30.7849 13.3286 29.8103 14.3031 28.6024 14.3031C28.3724 14.3031 28.1425 14.2482 27.9143 14.1882C27.2812 14.9929 25.6752 18.035 24.4107 27.6227L25.3304 26.4766C26.5915 22.0552 28.659 18.6682 29.4053 17.5767C29.1754 17.1752 29.0038 16.772 29.0038 16.3122C29.0038 15.1077 29.9784 14.1315 31.1863 14.1315C32.3342 14.1315 33.3104 15.1078 33.3104 16.3122C33.3104 17.4618 32.3324 18.4363 31.1863 18.4363C30.8449 18.438 30.5584 18.3831 30.3285 18.2682L30.328 18.2683ZM18.6711 21.7119L23.0942 27.856L22.3461 22.9765L21.085 14.8215C20.5085 15.2814 19.9354 15.9694 19.534 16.8873C18.9609 18.2102 18.6711 19.8745 18.6711 21.7119ZM24.2986 29.5202L26.0796 31.9326C26.0796 31.991 26.1379 32.0476 26.1379 32.1608H28.8368C30.731 30.6115 31.9938 28.1991 32.0522 25.7866C32.1071 24.2373 31.709 22.7994 30.7876 21.7099C28.6635 24.2939 26.4809 26.9362 24.2986 29.5202ZM17.638 22.228L15.857 19.8173C14.994 21.0818 14.5959 22.7479 14.6508 24.4689C14.7108 26.478 15.3989 28.6022 16.66 30.3832C17.1198 31.0163 17.6946 31.6443 18.326 32.1642H24.8136C22.4046 28.8305 19.9918 25.5583 17.638 22.228ZM30.7861 40.774V37.5586H17.3498V40.774C17.3498 43.0131 19.1891 44.8489 21.4282 44.8489H26.7092C28.95 44.8489 30.7861 43.013 30.7861 40.774ZM31.5926 33.3104H16.5469C15.6855 33.3104 14.9958 33.9985 14.9958 34.8598C14.9958 35.6627 15.6855 36.4108 16.5469 36.4108H31.5926C32.4539 36.4108 33.1419 35.7228 33.1419 34.8598C33.1402 33.9967 32.4521 33.3104 31.5926 33.3104ZM28.6054 11.1477C28.0323 11.1477 27.5725 11.6076 27.5725 12.1258C27.5725 12.6988 28.0323 13.1587 28.6054 13.1587C29.1784 13.1587 29.6383 12.6988 29.6383 12.1258C29.6383 11.6059 29.1784 11.1477 28.6054 11.1477ZM31.1893 15.2811C30.6163 15.2811 30.1564 15.7409 30.1564 16.314C30.1564 16.8322 30.6163 17.292 31.1893 17.292C31.7075 17.292 32.1673 16.8322 32.1673 16.314C32.1656 15.7409 31.7075 15.2811 31.1893 15.2811Z" fill="black"/>
</g>
<defs>
<filter id="filter0_d_2765_1779" x="-13.3333" y="-5.77778" width="74.6667" height="74.6667" filterUnits="userSpaceOnUse" color-interpolation-filters="sRGB">
<feFlood flood-opacity="0" result="BackgroundImageFix"/>
<feColorMatrix in="SourceAlpha" type="matrix" values="0 0 0 0 0 0 0 0 0 0 0 0 0 0 0 0 0 0 127 0" result="hardAlpha"/>
<feOffset dy="3.55556"/>
<feGaussianBlur stdDeviation="6.66667"/>
<feComposite in2="hardAlpha" operator="out"/>
<feColorMatrix type="matrix" values="0 0 0 0 0.0533385 0 0 0 0 0.0441146 0 0 0 0 0.320833 0 0 0 0.05 0"/>
<feBlend mode="normal" in2="BackgroundImageFix" result="effect1_dropShadow_2765_1779"/>
<feBlend mode="normal" in="SourceGraphic" in2="effect1_dropShadow_2765_1779" result="shape"/>
</filter>
</defs>
</svg>
