<svg width="73" height="60" viewBox="0 0 73 60" fill="none" xmlns="http://www.w3.org/2000/svg">
<g filter="url(#filter0_d_2781_2455)">
<path d="M58.5797 21.7389C58.8363 21.6173 59 21.3549 59 21.0665C59 20.778 58.8363 20.5156 58.5797 20.394L36.8055 10.0689C36.6127 9.97702 36.3873 9.97702 36.1945 10.0689L14.4203 20.394C14.1637 20.5156 14 20.778 14 21.0665C14 21.3549 14.1637 21.6173 14.4203 21.7389L36.1945 32.064C36.2909 32.1099 36.3958 32.1327 36.5 32.1327C36.6042 32.1327 36.7091 32.1099 36.8055 32.064L50.4193 25.6085V32.8376C47.3848 34.5694 42.5776 36.56 36.461 36.56C30.395 36.5512 25.6014 34.562 22.5807 32.8378V27.7156C22.5807 27.3063 22.256 26.9744 21.8549 26.9744C21.4537 26.9744 21.1291 27.3063 21.1291 27.7156V35.6341C21.1291 36.6671 21.6607 37.636 22.5162 38.163C25.4612 39.9785 30.2711 42.1447 36.4631 42.153H36.5021C39.3522 42.153 42.1789 41.689 44.9049 40.7744C45.2855 40.6463 45.4925 40.2275 45.3677 39.8388C45.243 39.4501 44.8319 39.2401 44.4513 39.3657C41.872 40.2319 39.1984 40.6705 36.5021 40.6705H36.4646C30.6064 40.6626 26.0538 38.6125 23.2661 36.8937C22.8436 36.6335 22.5807 36.1506 22.5807 35.6341V34.5225C25.7736 36.2308 30.5421 38.034 36.4986 38.0425C42.435 38.0425 47.214 36.2374 50.4193 34.5224V35.6334C50.4193 36.1586 50.1585 36.6327 49.7212 36.902C48.8493 37.4388 47.9279 37.9307 46.9838 38.3635C46.6181 38.5311 46.4543 38.9698 46.6188 39.3433C46.7827 39.7199 47.2211 39.8829 47.5778 39.7157C48.575 39.2586 49.5489 38.7392 50.4711 38.1717C51.3344 37.6397 51.8709 36.6671 51.8709 35.6334V24.9202L55.1094 23.3845V30.5633C53.8607 30.8948 52.932 32.0456 52.932 33.4231C52.932 34.2399 53.2571 34.9804 53.782 35.5172L53.0901 39.6785C52.9518 40.5062 53.1765 41.3488 53.7067 41.9905C54.2376 42.6319 55.013 43 55.8352 43C56.6574 43 57.4328 42.6319 57.9637 41.9905C58.4939 41.3488 58.7186 40.5062 58.5811 39.6788L57.8882 35.5175C58.4133 34.9807 58.7385 34.24 58.7385 33.4231C58.7385 32.0456 57.8098 30.8948 56.561 30.5633V22.6962L58.5797 21.7389ZM56.8545 41.0339C56.3456 41.6485 55.3249 41.6485 54.816 41.0339C54.5622 40.727 54.4545 40.3235 54.5211 39.9271L55.1267 36.2883C55.3548 36.3473 55.5895 36.3881 55.8352 36.3881C56.0809 36.3881 56.3156 36.3473 56.5436 36.2884L57.15 39.9275C57.216 40.3235 57.1082 40.727 56.8545 41.0339ZM57.2868 33.4231C57.2868 34.2407 56.6355 34.9056 55.8352 34.9056C55.035 34.9056 54.3836 34.2407 54.3836 33.4231C54.3836 32.6055 55.035 31.9406 55.8352 31.9406C56.6355 31.9406 57.2868 32.6055 57.2868 33.4231ZM36.5 30.5742L16.4496 21.0665L36.5 11.5587L56.5504 21.0665L36.5 30.5742Z" fill="black"/>
</g>
<defs>
<filter id="filter0_d_2781_2455" x="-0.333333" y="-6.77778" width="74.6667" height="74.6667" filterUnits="userSpaceOnUse" color-interpolation-filters="sRGB">
<feFlood flood-opacity="0" result="BackgroundImageFix"/>
<feColorMatrix in="SourceAlpha" type="matrix" values="0 0 0 0 0 0 0 0 0 0 0 0 0 0 0 0 0 0 127 0" result="hardAlpha"/>
<feOffset dy="3.55556"/>
<feGaussianBlur stdDeviation="6.66667"/>
<feComposite in2="hardAlpha" operator="out"/>
<feColorMatrix type="matrix" values="0 0 0 0 0.0533385 0 0 0 0 0.0441146 0 0 0 0 0.320833 0 0 0 0.05 0"/>
<feBlend mode="normal" in2="BackgroundImageFix" result="effect1_dropShadow_2781_2455"/>
<feBlend mode="normal" in="SourceGraphic" in2="effect1_dropShadow_2781_2455" result="shape"/>
</filter>
</defs>
</svg>
