<svg width="55" height="63" viewBox="0 0 55 63" fill="none" xmlns="http://www.w3.org/2000/svg">
<g filter="url(#filter0_d_2765_1797)">
<path d="M14 35.644V41.8C14.0014 42.9135 14.4444 43.9809 15.2317 44.7683C16.0191 45.5556 17.0865 45.9986 18.2 46H37.4C38.5135 45.9986 39.5809 45.5556 40.3683 44.7683C41.1556 43.9809 41.5986 42.9135 41.6 41.8V35.644C41.6015 33.724 40.8943 31.8711 39.6139 30.4404C38.3335 29.0097 36.57 28.102 34.6616 27.8914L30.9128 27.475C31.187 27.295 31.4444 27.115 31.6802 26.9494C31.8308 26.8432 31.9736 26.7424 32.1074 26.6524C32.5791 26.3322 32.9809 25.9196 33.2885 25.4396C33.5961 24.9597 33.8032 24.4223 33.8972 23.86L34.0772 22.7728C34.513 22.6578 34.8986 22.4021 35.174 22.0453C35.4494 21.6885 35.5992 21.2507 35.6 20.8V17.8C35.6 15.7313 34.7782 13.7474 33.3154 12.2846C31.8526 10.8218 29.8687 10 27.8 10C25.7313 10 23.7474 10.8218 22.2846 12.2846C20.8218 13.7474 20 15.7313 20 17.8V20.8C20.0006 21.2506 20.15 21.6883 20.4251 22.0452C20.7002 22.4021 21.0854 22.6581 21.521 22.7734L21.701 23.8606C21.7951 24.4227 22.0021 24.9599 22.3096 25.4398C22.6171 25.9196 23.0188 26.3321 23.4902 26.6524C23.6246 26.7424 23.7674 26.8432 23.918 26.9494C24.1538 27.1156 24.4112 27.2962 24.6854 27.475L20.9366 27.8914C19.0285 28.1024 17.2655 29.0103 15.9855 30.4409C14.7054 31.8716 13.9984 33.7243 14 35.644ZM19.4 41.8V32.2C19.4 32.0409 19.4632 31.8883 19.5757 31.7757C19.6883 31.6632 19.8409 31.6 20 31.6H35.6C35.7591 31.6 35.9117 31.6632 36.0243 31.7757C36.1368 31.8883 36.2 32.0409 36.2 32.2V41.8C36.2 41.9591 36.1368 42.1117 36.0243 42.2243C35.9117 42.3368 35.7591 42.4 35.6 42.4H20C19.8409 42.4 19.6883 42.3368 19.5757 42.2243C19.4632 42.1117 19.4 41.9591 19.4 41.8ZM26 28.6V28.1914C26.5619 28.4604 27.177 28.6 27.8 28.6C28.423 28.6 29.0381 28.4604 29.6 28.1914V28.6C29.6 29.0774 29.4104 29.5352 29.0728 29.8728C28.7352 30.2104 28.2774 30.4 27.8 30.4C27.3226 30.4 26.8648 30.2104 26.5272 29.8728C26.1896 29.5352 26 29.0774 26 28.6ZM19.4 44.8V43.6H36.2V44.8H19.4ZM40.4 35.644V41.8C40.399 42.5954 40.0827 43.3579 39.5203 43.9203C38.9579 44.4827 38.1954 44.799 37.4 44.8V43.6C37.399 43.3063 37.2893 43.0233 37.0922 42.8056C37.2932 42.5088 37.4005 42.1585 37.4 41.8V32.2C37.4 31.7226 37.2104 31.2648 36.8728 30.9272C36.5352 30.5896 36.0774 30.4 35.6 30.4H30.1844C30.565 29.902 30.7779 29.2962 30.7928 28.6696L34.529 29.0848C36.1438 29.2628 37.636 30.0307 38.7194 31.2411C39.8029 32.4516 40.4014 34.0195 40.4 35.644ZM23.1302 13.1302C24.054 12.2081 25.2304 11.5804 26.5108 11.3264C27.7911 11.0724 29.118 11.2035 30.3239 11.7032C31.5298 12.2029 32.5605 13.0487 33.286 14.1338C34.0115 15.2189 34.3991 16.4947 34.4 17.8V18.94C34.3071 18.897 34.211 18.8613 34.1126 18.8332C34.0494 18.3597 33.84 17.9178 33.5135 17.5691C33.1871 17.2204 32.7599 16.9823 32.2916 16.888C30.9653 16.7218 29.6867 16.2871 28.5338 15.6106C28.3144 15.4713 28.0599 15.3973 27.8 15.3973C27.5401 15.3973 27.2856 15.4713 27.0662 15.6106C25.9135 16.287 24.6351 16.7217 23.309 16.888C22.8406 16.9821 22.4133 17.2202 22.0867 17.5689C21.7602 17.9177 21.5506 18.3596 21.4874 18.8332C21.389 18.8613 21.2929 18.897 21.2 18.94V17.8C21.197 16.9327 21.3661 16.0734 21.6974 15.2718C22.0287 14.4702 22.5157 13.7423 23.1302 13.1302ZM24.1628 25.66C23.8263 25.4309 23.5398 25.136 23.3204 24.7932C23.1011 24.4503 22.9535 24.0665 22.8866 23.665L22.6322 22.1434C22.6093 22.0029 22.5371 21.8751 22.4286 21.7828C22.3201 21.6906 22.1824 21.64 22.04 21.64C21.8172 21.64 21.6036 21.5515 21.446 21.394C21.2885 21.2364 21.2 21.0228 21.2 20.8C21.2 20.5772 21.2885 20.3636 21.446 20.206C21.6036 20.0485 21.8172 19.96 22.04 19.96C22.1991 19.96 22.3517 19.8968 22.4643 19.7843C22.5768 19.6717 22.64 19.5191 22.64 19.36C22.6123 19.0827 22.6806 18.8042 22.8335 18.5712C22.9864 18.3381 23.2146 18.1646 23.48 18.0796C24.9729 17.8887 26.4112 17.3955 27.707 16.63C27.7348 16.6105 27.7679 16.6 27.8018 16.6C27.8357 16.6 27.8688 16.6105 27.8966 16.63C29.1913 17.395 30.6284 17.8883 32.12 18.0796C32.3854 18.1646 32.6136 18.3381 32.7665 18.5712C32.9194 18.8042 32.9877 19.0827 32.96 19.36C32.96 19.4388 32.9755 19.5168 33.0057 19.5896C33.0358 19.6624 33.08 19.7285 33.1357 19.7843C33.1915 19.84 33.2576 19.8842 33.3304 19.9143C33.4032 19.9445 33.4812 19.96 33.56 19.96C33.7828 19.96 33.9964 20.0485 34.154 20.206C34.3115 20.3636 34.4 20.5772 34.4 20.8C34.4 21.0228 34.3115 21.2364 34.154 21.394C33.9964 21.5515 33.7828 21.64 33.56 21.64C33.418 21.6399 33.2805 21.6902 33.1721 21.7819C33.0636 21.8737 32.9912 22.0009 32.9678 22.141L32.7134 23.6626C32.6468 24.0646 32.4993 24.4489 32.2798 24.7922C32.0604 25.1356 31.7735 25.4308 31.4366 25.66C31.2962 25.7548 31.1462 25.8604 30.9884 25.9714C30.0848 26.6068 28.9598 27.4 27.8 27.4C26.6402 27.4 25.5152 26.6068 24.6116 25.969C24.4538 25.858 24.3038 25.7524 24.1628 25.66ZM24.8072 28.672C24.8226 29.2978 25.0355 29.9026 25.4156 30.4H20C19.5226 30.4 19.0648 30.5896 18.7272 30.9272C18.3896 31.2648 18.2 31.7226 18.2 32.2V41.8C18.1995 42.1585 18.3068 42.5088 18.5078 42.8056C18.3107 43.0233 18.201 43.3063 18.2 43.6V44.8C17.4046 44.799 16.6421 44.4827 16.0797 43.9203C15.5173 43.3579 15.201 42.5954 15.2 41.8V35.644C15.1986 34.0195 15.7971 32.4516 16.8806 31.2411C17.964 30.0307 19.4562 29.2628 21.071 29.0848L24.8072 28.672Z" fill="black"/>
<path d="M27.8004 35.1992C27.3257 35.1992 26.8617 35.34 26.467 35.6037C26.0723 35.8674 25.7647 36.2422 25.5831 36.6808C25.4014 37.1193 25.3539 37.6019 25.4465 38.0674C25.5391 38.533 25.7677 38.9606 26.1033 39.2963C26.439 39.6319 26.8666 39.8605 27.3322 39.9531C27.7977 40.0457 28.2803 39.9982 28.7188 39.8165C29.1574 39.6349 29.5322 39.3273 29.7959 38.9326C30.0596 38.5379 30.2004 38.0739 30.2004 37.5992C30.2004 36.9627 29.9475 36.3523 29.4974 35.9022C29.0474 35.4521 28.4369 35.1992 27.8004 35.1992ZM27.8004 38.7992C27.5631 38.7992 27.331 38.7288 27.1337 38.597C26.9364 38.4651 26.7826 38.2777 26.6917 38.0584C26.6009 37.8392 26.5771 37.5979 26.6234 37.3651C26.6698 37.1323 26.784 36.9185 26.9519 36.7507C27.1197 36.5829 27.3335 36.4686 27.5663 36.4223C27.7991 36.376 28.0403 36.3997 28.2596 36.4906C28.4789 36.5814 28.6663 36.7352 28.7982 36.9325C28.93 37.1299 29.0004 37.3619 29.0004 37.5992C29.0004 37.9175 28.874 38.2227 28.6489 38.4477C28.4239 38.6728 28.1187 38.7992 27.8004 38.7992Z" fill="black"/>
</g>
<defs>
<filter id="filter0_d_2765_1797" x="-9.33333" y="-5.77778" width="74.6667" height="74.6667" filterUnits="userSpaceOnUse" color-interpolation-filters="sRGB">
<feFlood flood-opacity="0" result="BackgroundImageFix"/>
<feColorMatrix in="SourceAlpha" type="matrix" values="0 0 0 0 0 0 0 0 0 0 0 0 0 0 0 0 0 0 127 0" result="hardAlpha"/>
<feOffset dy="3.55556"/>
<feGaussianBlur stdDeviation="6.66667"/>
<feComposite in2="hardAlpha" operator="out"/>
<feColorMatrix type="matrix" values="0 0 0 0 0.0533385 0 0 0 0 0.0441146 0 0 0 0 0.320833 0 0 0 0.05 0"/>
<feBlend mode="normal" in2="BackgroundImageFix" result="effect1_dropShadow_2765_1797"/>
<feBlend mode="normal" in="SourceGraphic" in2="effect1_dropShadow_2765_1797" result="shape"/>
</filter>
</defs>
</svg>
