<svg width="68" height="67" viewBox="0 0 68 67" fill="none" xmlns="http://www.w3.org/2000/svg">
<g filter="url(#filter0_d_2781_2434)">
<path d="M34.0015 23.0441C35.0435 23.0379 36.0602 22.7233 36.9236 22.1399C37.7869 21.5565 38.4582 20.7306 38.8526 19.7661C39.2471 18.8017 39.3471 17.7421 39.1401 16.7209C38.933 15.6997 38.4282 14.7628 37.6892 14.0282C36.9503 13.2936 36.0103 12.7943 34.9879 12.5932C33.9655 12.3922 32.9065 12.4985 31.9445 12.8986C30.9824 13.2988 30.1604 13.9749 29.5821 14.8417C29.0039 15.7085 28.6953 16.7271 28.6953 17.7691C28.7019 19.1714 29.264 20.5141 30.2586 21.5028C31.2532 22.4915 32.5991 23.0457 34.0015 23.0441ZM34.0015 13.7503C34.7965 13.7565 35.5718 13.9979 36.2297 14.4442C36.8877 14.8905 37.3987 15.5216 37.6984 16.258C37.998 16.9943 38.0729 17.8029 37.9136 18.5818C37.7543 19.3607 37.3679 20.0749 36.8031 20.6345C36.2384 21.194 35.5206 21.5738 34.7402 21.7258C33.9599 21.8779 33.152 21.7955 32.4185 21.489C31.685 21.1825 31.0586 20.6657 30.6185 20.0036C30.1783 19.3416 29.9441 18.564 29.9453 17.7691C29.9519 16.6988 30.3825 15.6747 31.1429 14.9214C31.9032 14.1681 32.9312 13.747 34.0015 13.7503ZM30.5578 25.4878H37.4328C38.7445 25.4931 40.0079 25.9829 40.9804 26.8631C41.9529 27.7433 42.5659 28.9519 42.7015 30.2565L43.9515 30.1441C43.7878 28.5288 43.0317 27.0314 41.8291 25.9408C40.6264 24.8501 39.0625 24.2434 37.439 24.2378H30.564C28.9405 24.2434 27.3766 24.8501 26.174 25.9408C24.9714 27.0314 24.2152 28.5288 24.0515 30.1441L25.3015 30.2565C25.4369 28.954 26.0481 27.7472 27.0179 26.8673C27.9878 25.9874 29.2482 25.4962 30.5578 25.4878ZM22.0328 41.7753L23.2828 41.5753L21.9765 33.4503C21.9631 33.3514 21.9711 33.2507 21.9998 33.1551C22.0286 33.0594 22.0774 32.9711 22.1431 32.8959C22.2089 32.8207 22.2899 32.7605 22.3808 32.7192C22.4717 32.6779 22.5704 32.6565 22.6703 32.6566H45.3515C45.4526 32.6552 45.5527 32.6764 45.6446 32.7186C45.7365 32.7607 45.8178 32.8228 45.8828 32.9003C45.9476 32.9725 45.9957 33.0581 46.0238 33.151C46.0519 33.2439 46.0592 33.3418 46.0453 33.4378L44.739 41.5628L45.989 41.7628L47.3015 33.6378C47.342 33.361 47.3223 33.0788 47.2437 32.8104C47.1651 32.542 47.0295 32.2936 46.8461 32.0824C46.6628 31.8712 46.436 31.702 46.1813 31.5864C45.9266 31.4709 45.65 31.4117 45.3703 31.4128H22.6515C22.3706 31.4124 22.0929 31.4724 21.8373 31.5889C21.5817 31.7054 21.3542 31.8755 21.1703 32.0878C20.9878 32.2994 20.8535 32.5483 20.7769 32.817C20.7003 33.0858 20.6831 33.368 20.7265 33.6441L22.0328 41.7753Z" fill="black"/>
<path d="M36.2821 33.8438H37.9759V35.0938H36.2821V33.8438ZM30.0259 33.8438H35.4321V35.0938H30.0259V33.8438ZM22.8696 47.5H45.1321C45.4447 47.5163 45.7573 47.4688 46.0509 47.3604C46.3445 47.252 46.6129 47.085 46.8399 46.8695C47.0669 46.6541 47.2477 46.3947 47.3712 46.1071C47.4947 45.8195 47.5584 45.5098 47.5584 45.1969C47.5584 44.8839 47.4947 44.5742 47.3712 44.2867C47.2477 43.9991 47.0669 43.7397 46.8399 43.5242C46.6129 43.3087 46.3445 43.1417 46.0509 43.0333C45.7573 42.925 45.4447 42.8775 45.1321 42.8937H22.8696C22.5571 42.8775 22.2445 42.925 21.9509 43.0333C21.6573 43.1417 21.3888 43.3087 21.1618 43.5242C20.9349 43.7397 20.7541 43.9991 20.6306 44.2867C20.5071 44.5742 20.4434 44.8839 20.4434 45.1969C20.4434 45.5098 20.5071 45.8195 20.6306 46.1071C20.7541 46.3947 20.9349 46.6541 21.1618 46.8695C21.3888 47.085 21.6573 47.252 21.9509 47.3604C22.2445 47.4688 22.5571 47.5163 22.8696 47.5ZM22.8696 44.1437H45.1321C45.2772 44.1326 45.4231 44.1515 45.5606 44.1993C45.698 44.2472 45.8241 44.3229 45.9309 44.4218C46.0377 44.5207 46.1229 44.6406 46.1812 44.774C46.2395 44.9073 46.2696 45.0513 46.2696 45.1969C46.2696 45.3424 46.2395 45.4864 46.1812 45.6198C46.1229 45.7532 46.0377 45.873 45.9309 45.9719C45.8241 46.0708 45.698 46.1466 45.5606 46.1944C45.4231 46.2423 45.2772 46.2612 45.1321 46.25H22.8696C22.7245 46.2612 22.5786 46.2423 22.4412 46.1944C22.3037 46.1466 22.1776 46.0708 22.0708 45.9719C21.964 45.873 21.8788 45.7532 21.8205 45.6198C21.7623 45.4864 21.7322 45.3424 21.7322 45.1969C21.7322 45.0513 21.7623 44.9073 21.8205 44.774C21.8788 44.6406 21.964 44.5207 22.0708 44.4218C22.1776 44.3229 22.3037 44.2472 22.4412 44.1993C22.5786 44.1515 22.7245 44.1326 22.8696 44.1437Z" fill="black"/>
</g>
<defs>
<filter id="filter0_d_2781_2434" x="-3.33333" y="-3.77778" width="74.6667" height="74.6667" filterUnits="userSpaceOnUse" color-interpolation-filters="sRGB">
<feFlood flood-opacity="0" result="BackgroundImageFix"/>
<feColorMatrix in="SourceAlpha" type="matrix" values="0 0 0 0 0 0 0 0 0 0 0 0 0 0 0 0 0 0 127 0" result="hardAlpha"/>
<feOffset dy="3.55556"/>
<feGaussianBlur stdDeviation="6.66667"/>
<feComposite in2="hardAlpha" operator="out"/>
<feColorMatrix type="matrix" values="0 0 0 0 0.0533385 0 0 0 0 0.0441146 0 0 0 0 0.320833 0 0 0 0.05 0"/>
<feBlend mode="normal" in2="BackgroundImageFix" result="effect1_dropShadow_2781_2434"/>
<feBlend mode="normal" in="SourceGraphic" in2="effect1_dropShadow_2781_2434" result="shape"/>
</filter>
</defs>
</svg>
