<svg width="61" height="67" viewBox="0 0 61 67" fill="none" xmlns="http://www.w3.org/2000/svg">
<g filter="url(#filter0_d_2772_2270)">
<path d="M22.8051 18.3001C23.2534 18.5834 23.8457 18.4478 24.1283 18.0001C24.411 17.5518 24.2761 16.9596 23.8284 16.6769C23.5022 16.471 23.2323 16.2005 23.027 15.8704C22.6606 15.2853 22.5435 14.5945 22.697 13.9249C22.8512 13.2534 23.2573 12.6817 23.8418 12.3146C24.4238 11.9487 25.1139 11.833 25.7854 11.9865C26.4576 12.14 27.0281 12.5454 27.3932 13.1281C27.7597 13.7113 27.878 14.4033 27.7264 15.071C27.5704 15.7457 27.1636 16.3181 26.5816 16.6827C26.1327 16.9641 25.9965 17.5563 26.2779 18.0046C26.4601 18.2956 26.7722 18.4549 27.0914 18.4549C27.2653 18.4549 27.4412 18.4075 27.5998 18.3084C28.6148 17.6721 29.3234 16.6763 29.5965 15.4995C29.8619 14.3279 29.656 13.1236 29.0183 12.1086C28.3826 11.0917 27.3862 10.3844 26.2133 10.1158C25.041 9.84653 23.8367 10.0506 22.8198 10.6895C21.8029 11.329 21.0943 12.3254 20.8263 13.4952C20.5577 14.6636 20.7618 15.8692 21.3994 16.8873C21.7588 17.4636 22.2321 17.9388 22.8051 18.3001Z" fill="black"/>
<path d="M43.1729 44.5203C42.6434 44.5235 42.2162 44.9559 42.22 45.4861C42.2226 45.9254 42.1106 46.3629 41.8938 46.7524C41.5619 47.3542 41.0151 47.7897 40.3512 47.9784C39.688 48.169 38.9935 48.0903 38.3929 47.7565C37.7886 47.422 37.3511 46.8726 37.1612 46.2151C36.9731 45.5513 37.0531 44.8529 37.3863 44.2485C37.6415 43.7842 37.4733 43.201 37.009 42.9451C36.5434 42.69 35.9614 42.8588 35.7056 43.3225C35.1274 44.3726 34.9886 45.5858 35.3167 46.7428C35.6493 47.8959 36.411 48.8514 37.4618 49.434C38.1365 49.8088 38.8796 50 39.6318 50C40.0481 50 40.4676 49.9412 40.8789 49.8235C42.0358 49.4941 42.9926 48.7331 43.572 47.6816C43.9468 47.0056 44.1431 46.2427 44.138 45.4733C44.1348 44.9437 43.7204 44.4992 43.1729 44.5203Z" fill="black"/>
<path d="M25.4789 20.1621C24.9487 20.1621 24.5195 20.5912 24.5195 21.1214C24.5195 21.6516 24.9487 22.0808 25.4789 22.0808C27.1743 22.0814 28.5532 23.4603 28.5532 25.1551V28.324C28.5532 28.8542 28.9823 29.2834 29.5125 29.2834H35.7941C36.3243 29.2834 36.7535 28.8542 36.7535 28.324C36.7535 27.7939 36.3243 27.3647 35.7941 27.3647H30.4718V25.1551C30.4718 22.4025 28.2321 20.1627 25.4789 20.1621Z" fill="black"/>
<path d="M46.4157 37.0014C46.0409 36.6267 45.434 36.6267 45.0592 37.0014L40.6265 41.4342L35.6802 36.4885C35.5005 36.3088 35.2562 36.2078 35.0017 36.2078H25.8855C24.1901 36.2071 22.8112 34.8283 22.8112 33.1334V21.1214C22.8112 20.5912 22.3821 20.1621 21.8519 20.1621C21.3217 20.1621 20.8926 20.5912 20.8926 21.1214V33.1328C20.8926 35.8848 23.1323 38.1251 25.8855 38.1258H34.6052L39.9486 43.4686C40.136 43.656 40.3816 43.7493 40.6272 43.7493C40.8727 43.7493 41.1183 43.656 41.3057 43.4686L46.4164 38.3579C46.7905 37.9831 46.7905 37.3756 46.4157 37.0014Z" fill="black"/>
<path d="M29.5121 31.0156C28.9819 31.0156 28.5527 31.4448 28.5527 31.9749C28.5527 32.5051 28.9819 32.9343 29.5121 32.9343H36.2376L40.6754 37.3715C40.8628 37.5589 41.1084 37.6522 41.354 37.6522C41.5995 37.6522 41.8451 37.5589 42.0325 37.3715C42.4073 36.9967 42.4073 36.3891 42.0325 36.015L37.3133 31.2964C37.1336 31.1167 36.8893 31.0156 36.6347 31.0156H29.5121Z" fill="black"/>
<path d="M33.5126 39.6645C32.9914 39.6229 32.5188 40.0066 32.4715 40.5343C32.0852 44.8333 28.5338 48.0752 24.211 48.0752C19.6383 48.0752 15.918 44.3549 15.918 39.7821C15.918 37.3845 16.9547 35.1058 18.7614 33.5299C19.1612 33.182 19.2021 32.5757 18.8542 32.1766C18.5063 31.7769 17.9 31.736 17.5009 32.0839C15.2759 34.0243 14 36.83 14 39.7821C14 45.4127 18.5811 49.9938 24.2117 49.9938C29.5347 49.9938 33.9072 46.0011 34.3831 40.7063C34.4298 40.178 34.0403 39.7118 33.5126 39.6645Z" fill="black"/>
</g>
<defs>
<filter id="filter0_d_2772_2270" x="-7.33333" y="-3.77778" width="74.6667" height="74.6667" filterUnits="userSpaceOnUse" color-interpolation-filters="sRGB">
<feFlood flood-opacity="0" result="BackgroundImageFix"/>
<feColorMatrix in="SourceAlpha" type="matrix" values="0 0 0 0 0 0 0 0 0 0 0 0 0 0 0 0 0 0 127 0" result="hardAlpha"/>
<feOffset dy="3.55556"/>
<feGaussianBlur stdDeviation="6.66667"/>
<feComposite in2="hardAlpha" operator="out"/>
<feColorMatrix type="matrix" values="0 0 0 0 0.0533385 0 0 0 0 0.0441146 0 0 0 0 0.320833 0 0 0 0.05 0"/>
<feBlend mode="normal" in2="BackgroundImageFix" result="effect1_dropShadow_2772_2270"/>
<feBlend mode="normal" in="SourceGraphic" in2="effect1_dropShadow_2772_2270" result="shape"/>
</filter>
</defs>
</svg>
