<svg width="64" height="63" viewBox="0 0 64 63" fill="none" xmlns="http://www.w3.org/2000/svg">
<g filter="url(#filter0_d_2765_1734)">
<path d="M23.7073 32.1998C25.2358 32.1998 26.7028 31.5923 27.7842 30.5108C28.8657 29.4293 29.4732 27.9623 29.4732 26.4339C29.4732 24.9054 28.8657 23.4384 27.7842 22.357C26.7027 21.2755 25.2357 20.668 23.7073 20.668C22.1789 20.668 20.7118 21.2755 19.6304 22.357C18.5489 23.4384 17.9414 24.9054 17.9414 26.4339C17.9429 27.9624 18.5504 29.4279 19.6319 30.5093C20.7134 31.5907 22.1789 32.1983 23.7073 32.1998ZM23.7073 22.4677C25.3108 22.4677 26.7568 23.4337 27.3718 24.9157C27.9853 26.3977 27.6463 28.1032 26.5123 29.2388C25.3768 30.3727 23.6713 30.7117 22.1892 30.0983C20.7072 29.4832 19.7412 28.0373 19.7412 26.4338C19.7382 25.3793 20.1537 24.3668 20.8977 23.6198C21.6417 22.8728 22.6527 22.4513 23.7072 22.4498L23.7073 22.4677Z" fill="black"/>
<path d="M49.101 10H18.4352C17.9387 10 17.5352 10.4035 17.5352 10.9V20.5841C17.5352 21.0806 17.9387 21.4841 18.4352 21.4841C18.9317 21.4841 19.3352 21.0806 19.3352 20.5841V11.8001H48.2012V32.8003H41.697C41.2005 32.8003 40.797 33.2038 40.797 33.7003C40.797 34.1968 41.2005 34.6003 41.697 34.6003H49.1009C49.5974 34.6003 50.0009 34.1968 50.0009 33.7003V10.9003C50.0009 10.4038 49.5975 10 49.101 10Z" fill="black"/>
<path d="M37.0097 32.8H19.6099C18.1234 32.8 16.6969 33.3896 15.6455 34.441C14.594 35.4925 14.0015 36.9175 14 38.4039V45.1001C14 45.5966 14.4035 46.0001 14.9 46.0001H28.2079C28.7044 46.0001 29.1079 45.5966 29.1079 45.1001V38.9019H37.0098C37.8424 38.9394 38.6538 38.6334 39.2569 38.0574C39.8584 37.4814 40.1988 36.685 40.1988 35.8509C40.1988 35.0169 39.8583 34.2204 39.2569 33.6444C38.6539 33.0685 37.8422 32.7625 37.0097 32.8ZM37.0097 37.102H28.2077C27.7112 37.102 27.3076 37.5055 27.3076 38.002V44.2001H15.7996V38.404C15.8026 36.3025 17.5081 34.6001 19.6096 34.6001H37.0093C37.3558 34.5761 37.6979 34.6976 37.9513 34.9346C38.2063 35.1716 38.3503 35.5031 38.3503 35.8511C38.3503 36.199 38.2063 36.5305 37.9513 36.7676C37.6978 37.0046 37.3562 37.126 37.0097 37.102Z" fill="black"/>
</g>
<defs>
<filter id="filter0_d_2765_1734" x="-5.33333" y="-5.77778" width="74.6667" height="74.6667" filterUnits="userSpaceOnUse" color-interpolation-filters="sRGB">
<feFlood flood-opacity="0" result="BackgroundImageFix"/>
<feColorMatrix in="SourceAlpha" type="matrix" values="0 0 0 0 0 0 0 0 0 0 0 0 0 0 0 0 0 0 127 0" result="hardAlpha"/>
<feOffset dy="3.55556"/>
<feGaussianBlur stdDeviation="6.66667"/>
<feComposite in2="hardAlpha" operator="out"/>
<feColorMatrix type="matrix" values="0 0 0 0 0.0533385 0 0 0 0 0.0441146 0 0 0 0 0.320833 0 0 0 0.05 0"/>
<feBlend mode="normal" in2="BackgroundImageFix" result="effect1_dropShadow_2765_1734"/>
<feBlend mode="normal" in="SourceGraphic" in2="effect1_dropShadow_2765_1734" result="shape"/>
</filter>
</defs>
</svg>
